<svg width="14" height="7" viewBox="0 0 14 7" fill="none" xmlns="http://www.w3.org/2000/svg">
<path d="M0.283414 1.3625L7.00292 7L13.7224 1.3625C13.905 1.20885 14.0047 1.00269 13.9998 0.789378C13.9949 0.576068 13.8857 0.37308 13.6962 0.22507C13.5067 0.0770593 13.2524 -0.00384998 12.9893 0.000141144C12.7262 0.00413275 12.4759 0.0926971 12.2934 0.246352L7.00292 4.6873L1.70664 0.246352C1.5241 0.0926971 1.27375 0.00413227 1.01067 0.000141144C0.747594 -0.00384998 0.493335 0.0770593 0.303829 0.22507C0.114324 0.37308 0.00509548 0.576068 0.000173569 0.789378C-0.0047493 1.00269 0.0950375 1.20885 0.277581 1.3625H0.283414Z" fill="white"/>
</svg>
