<svg width="6" height="10" viewBox="0 0 6 10" fill="none" xmlns="http://www.w3.org/2000/svg">
<path d="M5.73897 4.86316L1.9879 1.11217C1.90114 1.02534 1.78533 0.977509 1.66184 0.977509C1.53835 0.977509 1.42254 1.02534 1.33578 1.11217L1.05954 1.38834C0.87979 1.5683 0.87979 1.86078 1.05954 2.04046L4.2094 5.19032L1.05605 8.34368C0.969288 8.4305 0.921387 8.54625 0.921387 8.66967C0.921387 8.79323 0.969288 8.90897 1.05605 8.99587L1.33229 9.27197C1.41911 9.3588 1.53486 9.40663 1.65835 9.40663C1.78184 9.40663 1.89765 9.3588 1.98441 9.27197L5.73897 5.51755C5.82593 5.43045 5.87369 5.31415 5.87342 5.19053C5.87369 5.06642 5.82593 4.9502 5.73897 4.86316Z" fill="white"/>
</svg>
