<svg width="14" height="7" viewBox="0 0 14 7" fill="none" xmlns="http://www.w3.org/2000/svg">
<path d="M13.7166 5.6375L6.99708 0L0.277582 5.6375C0.0950379 5.79115 -0.00474862 5.99731 0.000173843 6.21062C0.00509631 6.42393 0.114325 6.62692 0.30383 6.77493C0.493335 6.92294 0.747594 7.00385 1.01067 6.99986C1.27375 6.99587 1.5241 6.9073 1.70664 6.75365L6.99708 2.3127L12.2934 6.75365C12.4759 6.9073 12.7262 6.99587 12.9893 6.99986C13.2524 7.00385 13.5067 6.92294 13.6962 6.77493C13.8857 6.62692 13.9949 6.42393 13.9998 6.21062C14.0047 5.99731 13.905 5.79115 13.7224 5.6375H13.7166Z" fill="#1071BA"/>
</svg>
