<svg width="508" height="1088" viewBox="0 0 508 1088" fill="none" xmlns="http://www.w3.org/2000/svg">
    <path d="M453.859 505.857L453.239 506.481H454.213C454.125 506.303 453.948 506.08 453.859 505.857ZM550.578 400.298C540.22 400.298 531.854 408.768 531.854 419.199C531.854 421.606 532.297 423.88 533.093 425.975L453.815 505.857L444.519 515.218L432.125 527.7C434.56 531.132 437.083 534.52 439.783 537.819L452.088 525.427L541.283 435.559C544.027 437.164 547.214 438.055 550.578 438.055C560.936 438.055 569.346 429.586 569.346 419.199C569.346 408.813 560.936 400.298 550.578 400.298ZM550.578 428.962C549.737 428.962 548.896 428.828 548.099 428.605C543.983 427.535 540.928 423.746 540.928 419.199C540.928 418.753 540.973 418.397 541.017 417.951C541.637 413.226 545.709 409.481 550.578 409.481C555.934 409.481 560.228 413.85 560.228 419.199C560.228 424.593 555.934 428.962 550.578 428.962ZM418.624 506.481C418.845 506.883 419.022 507.284 419.288 507.64L420.483 506.481H418.624ZM703.16 373.73C692.979 373.73 684.347 380.462 681.381 389.734H637.338C637.382 388.173 637.382 386.569 637.382 385.009C637.382 380.595 637.293 376.895 637.116 373.329L636.851 368.649L632.823 366.242C596.171 344.934 554.296 333.745 511.846 333.745C469.352 333.745 427.521 344.978 390.87 366.242L386.798 368.649L386.532 373.329C386.355 376.895 386.222 380.64 386.222 385.009C386.222 386.569 386.222 388.173 386.311 389.734H342.267C339.301 380.462 330.714 373.73 320.489 373.73C307.873 373.73 297.604 384.028 297.604 396.732C297.604 409.437 307.873 419.779 320.489 419.779C330.67 419.779 339.301 413.048 342.267 403.776H387.019C387.904 415.232 389.586 426.554 392.065 437.699H350.589V451.785H395.606C399.59 465.827 404.813 479.423 411.188 492.484H373.12C370.154 483.167 361.567 476.481 351.341 476.481C338.77 476.481 328.501 486.823 328.501 499.527C328.501 512.187 338.77 522.529 351.341 522.529C361.522 522.529 370.154 515.798 373.12 506.526H420.395L431.948 495.025L434.515 492.484L487.545 439.749C489.935 440.908 492.635 441.532 495.468 441.532C505.738 441.532 514.192 433.063 514.192 422.676C514.192 412.245 505.782 403.776 495.468 403.776C485.11 403.776 476.7 412.245 476.7 422.676C476.7 425.618 477.364 428.427 478.603 430.923L425.884 483.257C421.014 473.093 416.898 462.573 413.622 451.785C412.161 447.149 410.878 442.469 409.771 437.699C407.115 426.644 405.256 415.276 404.327 403.776C403.972 399.095 403.663 394.459 403.618 389.734C403.53 388.173 403.53 386.569 403.53 385.009C403.53 382.869 403.574 380.907 403.618 379.035C436.596 360.759 473.911 351.174 511.802 351.174C549.649 351.174 586.92 360.803 619.986 379.035C620.074 380.907 620.074 382.869 620.074 385.009C620.074 386.569 620.074 388.173 619.986 389.734C619.941 394.459 619.676 399.095 619.277 403.776C618.348 415.276 616.533 426.599 613.877 437.699C612.77 442.424 611.487 447.149 610.07 451.785C605.732 465.916 600.066 479.512 593.073 492.484C590.549 497.254 587.805 501.979 584.883 506.526C572.843 525.694 557.882 543.168 540.441 558.057C535.749 562.114 530.88 565.947 525.834 569.558C521.319 572.857 516.671 576.022 511.846 578.919C507.021 575.932 502.374 572.857 497.814 569.603C492.768 565.947 487.943 562.114 483.207 558.102C480.816 556.051 478.426 553.911 476.08 551.772L521.673 506.036C523.975 507.105 526.498 507.685 529.198 507.685C539.556 507.685 547.966 499.215 547.966 488.784C547.966 478.353 539.556 469.883 529.198 469.883C518.929 469.883 510.474 478.353 510.474 488.784C510.474 491.86 511.227 494.802 512.51 497.388L467.006 542.812L454.7 555.026C455.674 556.051 456.692 557.076 457.71 558.102H427.61C425.397 551.816 419.421 547.269 412.383 547.269C403.441 547.269 396.226 554.58 396.226 563.54C396.226 572.545 403.485 579.811 412.383 579.811C418.181 579.811 423.228 576.735 426.105 572.099H472.893C483.605 581.193 495.114 589.395 507.464 596.572L511.846 599.113L516.184 596.572C528.49 589.395 539.999 581.193 550.711 572.099H597.499C600.376 576.735 605.467 579.811 611.221 579.811C620.163 579.811 627.378 572.5 627.378 563.54C627.378 554.535 620.118 547.269 611.221 547.269C604.183 547.269 598.207 551.816 595.994 558.102H565.894C581.21 542.678 594.356 525.337 605.068 506.57H650.484C653.45 515.843 662.037 522.574 672.263 522.574C684.878 522.574 695.103 512.232 695.103 499.572C695.103 486.867 684.878 476.525 672.263 476.525C662.082 476.525 653.45 483.257 650.484 492.529H612.461C618.835 479.512 624.014 465.871 628.042 451.83H673.015V437.743H631.583C634.018 426.644 635.7 415.321 636.585 403.82H681.337C684.303 413.092 692.89 419.823 703.115 419.823C715.731 419.823 726 409.481 726 396.777C726.045 384.028 715.775 373.73 703.16 373.73ZM320.533 408.412C314.114 408.412 308.935 403.196 308.935 396.777C308.935 390.358 314.114 385.098 320.533 385.098C326.951 385.098 332.13 390.358 332.13 396.777C332.13 403.196 326.907 408.412 320.533 408.412ZM351.386 511.117C344.967 511.117 339.788 505.902 339.788 499.483C339.788 493.019 345.011 487.803 351.386 487.803C357.804 487.803 362.983 493.019 362.983 499.483C362.983 505.902 357.804 511.117 351.386 511.117ZM495.512 412.914C500.78 412.914 505.162 417.282 505.162 422.632C505.162 427.981 500.78 432.349 495.512 432.349H494.981C490.245 432.082 486.394 428.382 485.907 423.702C485.818 423.345 485.818 422.988 485.818 422.632C485.818 417.282 490.201 412.914 495.512 412.914ZM529.287 478.977C534.643 478.977 538.981 483.346 538.981 488.695C538.981 494.044 534.643 498.413 529.287 498.413H528.844C524.152 498.19 520.434 494.713 519.77 490.121C519.681 489.631 519.681 489.141 519.681 488.695C519.681 483.346 523.975 478.977 529.287 478.977ZM412.427 571.698C407.912 571.698 404.194 567.998 404.194 563.451C404.194 558.904 407.868 555.16 412.427 555.16C416.942 555.16 420.66 558.859 420.66 563.451C420.616 568.042 416.942 571.698 412.427 571.698ZM611.266 555.204C615.781 555.204 619.499 558.904 619.499 563.495C619.499 568.042 615.825 571.742 611.266 571.742C606.75 571.742 603.032 568.042 603.032 563.495C603.032 558.904 606.75 555.204 611.266 555.204ZM672.307 487.759C678.725 487.759 683.904 492.974 683.904 499.438C683.904 505.902 678.681 511.073 672.307 511.073C665.888 511.073 660.709 505.857 660.709 499.438C660.665 492.974 665.888 487.759 672.307 487.759ZM703.16 408.412C696.741 408.412 691.562 403.196 691.562 396.777C691.562 390.358 696.785 385.098 703.16 385.098C709.578 385.098 714.757 390.358 714.757 396.777C714.757 403.196 709.578 408.412 703.16 408.412ZM301.41 23.666C303.579 8.59894 317.434 -1.87669 332.44 0.307587C347.402 2.49187 357.804 16.4445 355.635 31.5562C353.466 46.6233 339.611 57.0989 324.605 54.9146C309.644 52.7303 299.241 38.7331 301.41 23.666ZM365.816 143.088C365.816 122.003 382.77 104.93 403.707 104.93C424.644 104.93 441.598 122.003 441.598 143.088C441.598 164.173 424.644 181.246 403.707 181.246C382.77 181.291 365.816 164.173 365.816 143.088ZM568.328 889.577L586.787 886.368L584.618 873.753C590.107 872.059 595.374 869.696 600.288 866.665L608.3 876.293L622.642 864.168L614.718 854.673C618.215 850.795 621.269 846.471 623.837 841.746L635.39 846.204L642.118 828.64L630.521 824.138C631.716 818.878 632.291 813.618 632.247 808.402L644.686 806.664L642.118 787.986L629.414 789.769C627.776 784.286 625.475 779.026 622.553 774.123L632.823 766.01L621.269 751.165L610.734 759.501C606.75 755.846 602.324 752.636 597.455 749.917L602.457 736.856L585.016 730.08L579.97 743.275C568.992 740.779 557.882 741.135 547.524 743.988L541.681 727.673L523.886 734.137L530.128 751.522C520.566 757.406 512.377 765.742 506.667 776.039L492.635 770.601L485.907 788.209L499.85 793.603C498.7 798.417 498.124 803.276 498.08 808.135L483.384 810.185L485.995 828.863L500.47 826.813C501.887 832.073 503.879 837.199 506.534 841.924L495.291 850.795L506.844 865.639L517.822 856.947C522.027 861.182 526.896 864.882 532.297 867.913L527.428 880.617L544.912 887.393L549.737 874.778C555.226 876.115 560.803 876.739 566.248 876.65L568.328 889.577ZM545.842 859.443C518.265 848.745 504.543 817.585 515.166 789.814C519.194 779.249 526.144 770.69 534.776 764.761C540.043 761.151 545.886 758.476 552.083 756.916C562.441 754.286 573.64 754.732 584.308 758.877C611.044 769.219 624.678 798.907 615.825 826.01L613.921 830.958C610.823 838.002 606.441 844.02 601.129 848.923L597.809 851.731C583.556 862.831 563.99 866.486 545.842 859.443ZM188.136 423.434C201.062 329.555 265.644 273.744 268.389 271.426C278.437 262.912 293.443 264.204 301.942 274.279C310.396 284.398 309.157 299.465 299.153 307.979C298.489 308.559 245.592 354.964 235.278 429.987C233.552 442.468 222.574 451.384 210.269 450.626C209.649 450.582 209.074 450.537 208.454 450.448C195.44 448.62 186.366 436.54 188.136 423.434ZM156.664 387.416C154.495 402.483 140.64 412.958 125.634 410.774C110.672 408.59 100.27 394.637 102.439 379.526C104.608 364.458 118.463 353.983 133.469 356.167C148.43 358.307 158.789 372.304 156.664 387.416ZM252.188 153.074C262.723 145.139 277.64 147.323 285.519 157.888C293.398 168.497 291.229 183.475 280.739 191.41C279.765 192.168 210.8 244.992 171.404 320.505C166.889 329.153 157.903 333.834 148.829 333.299C145.598 333.076 142.322 332.229 139.268 330.58C127.626 324.428 123.155 309.941 129.264 298.217C173.883 212.718 249.045 155.436 252.188 153.074ZM441.598 24.9142C441.598 12.6555 451.469 2.71475 463.642 2.71475C475.815 2.71475 485.686 12.6555 485.686 24.9142C485.686 37.1729 475.815 47.1136 463.642 47.1136C451.469 47.069 441.598 37.1729 441.598 24.9142ZM556.687 65.0782C556.687 55.717 564.212 48.1389 573.507 48.1389C582.803 48.1389 590.328 55.717 590.328 65.0782C590.328 74.4394 582.803 82.0175 573.507 82.0175C564.212 81.973 556.687 74.3948 556.687 65.0782ZM664.472 265.72C664.472 254.888 673.192 246.106 683.949 246.106C694.705 246.106 703.425 254.888 703.425 265.72C703.425 276.552 694.705 285.334 683.949 285.334C673.192 285.334 664.472 276.552 664.472 265.72ZM595.773 195.6C595.773 179.24 608.964 165.956 625.209 165.956C641.454 165.956 654.645 179.24 654.645 195.6C654.645 211.96 641.454 225.244 625.209 225.244C608.964 225.244 595.773 211.96 595.773 195.6ZM660.178 677.346L662.392 693.26L674.742 691.521C675.981 696.023 677.663 700.392 679.876 704.404L670.315 711.982L680.186 724.642L689.57 717.242C693.156 720.853 697.317 724.018 701.92 726.603L697.759 737.436L712.677 743.186L716.793 732.443C721.485 733.602 726.222 734.137 730.87 734.048L732.729 745.014L748.487 742.294L746.628 731.551C751.32 730.125 755.791 728.074 759.996 725.489L766.857 733.691L779.074 723.349L772.302 715.236C775.267 711.937 777.879 708.237 780.092 704.226L789.919 708.059L795.629 693.081L785.714 689.248C786.732 684.79 787.219 680.288 787.175 675.83L797.754 674.359L795.585 658.445L784.784 659.96C783.368 655.28 781.42 650.778 778.897 646.632L787.662 639.722L777.791 627.062L768.805 634.15C765.441 631.03 761.634 628.266 757.473 625.993L761.722 614.848L746.849 609.053L742.555 620.287C733.216 618.147 723.743 618.459 714.89 620.911L709.888 607.003L694.705 612.53L700.017 627.375C691.872 632.412 684.878 639.5 680.009 648.281L668.057 643.645L662.303 658.668L674.21 663.259C673.237 667.36 672.75 671.506 672.705 675.652L660.178 677.346ZM687.401 659.916C690.854 650.911 696.785 643.645 704.133 638.563C708.604 635.488 713.606 633.17 718.874 631.877C727.682 629.648 737.244 630.049 746.362 633.571C769.159 642.397 780.801 667.717 773.231 690.808L771.638 694.998C769.026 700.971 765.263 706.142 760.748 710.288L757.915 712.651C745.743 722.146 729.055 725.266 713.606 719.248C690.057 710.199 678.327 683.586 687.401 659.916ZM495.999 151.513C495.999 132.88 511.005 117.768 529.508 117.768C548.011 117.768 563.017 132.88 563.017 151.513C563.017 170.147 548.011 185.258 529.508 185.258C511.005 185.258 495.999 170.147 495.999 151.513ZM38.8303 266.3C91.9483 141.617 215.448 65.2119 220.671 62.0024C231.87 55.1375 246.522 58.7482 253.339 70.0708C260.155 81.3934 256.57 96.1039 245.327 102.969C243.29 104.217 129.352 175.318 82.5641 285.156C78.4917 294.74 68.9747 300.267 59.2364 299.643C56.5805 299.465 53.9246 298.841 51.3573 297.726C39.2287 292.555 33.6513 278.469 38.8303 266.3ZM167.819 698.564C179.416 698.564 188.8 708.015 188.8 719.694C188.8 731.373 179.416 740.823 167.819 740.823C156.221 740.823 146.837 731.373 146.837 719.694C146.837 708.059 156.221 698.564 167.819 698.564ZM423.847 667.182C428.849 672.308 428.805 680.6 423.67 685.682C421.147 688.178 417.872 689.426 414.596 689.426C411.232 689.426 407.868 688.133 405.345 685.503L287.467 564.61C282.465 559.484 282.509 551.192 287.644 546.11C292.779 541.029 300.968 541.162 306.014 546.289L423.847 667.182ZM423.405 789.858L421.9 779.026L414.552 780.051C413.622 776.842 412.25 773.811 410.568 771.002L416.499 766.277L409.815 757.674L403.707 762.488C401.405 760.348 398.838 758.521 396.005 756.96L398.882 749.382L388.745 745.459L385.824 753.082C379.45 751.611 373.031 751.834 367.011 753.483L363.603 744.033L353.289 747.777L356.919 757.852C351.386 761.284 346.649 766.099 343.329 772.072L335.185 768.907L331.289 779.115L339.39 782.236C338.726 785.044 338.372 787.852 338.372 790.661L329.829 791.82L331.334 802.652L339.7 801.493C340.541 804.569 341.692 807.511 343.197 810.275L336.69 815.446L343.374 824.049L349.748 819.012C352.182 821.464 355.015 823.603 358.158 825.386L355.325 832.742L365.462 836.664L368.251 829.354C371.438 830.112 374.669 830.513 377.812 830.423L379.096 837.868L389.808 836.04L388.568 828.73C391.755 827.749 394.81 826.367 397.642 824.629L402.29 830.201L410.612 823.157L406.009 817.63C408.045 815.401 409.815 812.86 411.32 810.141L418.004 812.726L421.9 802.518L415.171 799.888C415.88 796.857 416.19 793.781 416.145 790.75L423.405 789.858ZM406.717 801.047L405.61 803.9C403.84 807.957 401.272 811.478 398.218 814.287L396.315 815.891C388.037 822.355 376.705 824.45 366.17 820.394C350.19 814.197 342.223 796.144 348.376 780.051C350.722 773.944 354.75 768.996 359.752 765.519C362.806 763.424 366.214 761.864 369.756 760.972C375.731 759.457 382.238 759.724 388.435 762.131C403.928 768.149 411.852 785.356 406.717 801.047ZM706.302 667.271C711.349 654.121 726 647.568 739.059 652.65C752.117 657.732 758.624 672.487 753.578 685.637C748.531 698.787 733.88 705.34 720.821 700.258C707.807 695.176 701.3 680.421 706.302 667.271ZM554.429 837.065C539.114 831.137 531.5 813.796 537.387 798.373C543.274 782.949 560.493 775.282 575.809 781.21C591.125 787.139 598.738 804.48 592.851 819.903C586.92 835.327 569.745 842.994 554.429 837.065ZM899.298 823.291C899.298 823.291 900.006 825.877 885.93 826.634C881.238 826.902 877.475 830.78 877.475 835.55C877.475 837.288 877.962 838.982 878.936 840.409C883.053 846.56 893.278 865.283 873.314 874.377C849.234 885.343 862.735 894.748 863.045 903.798C863.399 912.847 891.109 996.607 780.181 1011.72C780.181 1011.72 720.423 1016 666.552 997.989C648.846 992.105 629.104 999.683 619.941 1016.04C609.141 1035.34 601.129 1065.75 612.77 1110.01C615.205 1119.33 618.304 1128.15 621.933 1136.58C621.933 1136.58 518.84 1073.59 579.793 960.366C579.793 960.366 720.467 1006.28 779.561 964.244C779.561 964.244 830.289 924.125 800.764 858.819C800.764 858.819 852.156 844.242 820.683 799.933L842.285 797.347C842.285 797.347 846.534 765.965 834.405 744.835C829.935 737.079 832.723 727.049 841.001 723.706C843.48 722.681 846.446 721.878 849.987 721.432C869.242 718.847 913.33 699.857 895.358 674.002C877.387 648.147 849.544 614.492 833.255 591.222C816.965 567.953 816.567 535.189 829.846 496.763C843.126 458.383 858.53 390.447 778.897 308.336C778.897 308.336 785.67 303.477 805.235 306.062C805.235 306.062 828.562 251.857 654.335 117.724C657.434 119.329 857.29 223.818 860.699 335.929L836.707 333.344C836.707 333.344 902.883 404.088 895.801 461.013C888.719 517.938 871.411 554.803 878.449 594.922C885.532 635.042 1039.04 730.125 890.666 755.356C890.622 755.356 880.662 760.839 899.298 823.291ZM393.349 797.526C389.94 806.441 379.981 810.899 371.083 807.466C362.23 804.034 357.804 794.004 361.212 785.044C364.621 776.084 374.58 771.671 383.478 775.103C392.375 778.536 396.802 788.61 393.349 797.526ZM323.366 697.405C328.456 702.487 328.456 710.778 323.41 715.905C320.887 718.446 317.567 719.738 314.203 719.738C310.883 719.738 307.563 718.49 305.04 715.905L255.109 665.8C250.019 660.718 250.019 652.427 255.065 647.301C260.111 642.174 268.344 642.174 273.435 647.256L323.366 697.405ZM54.987 409.169C52.818 424.236 38.9631 434.712 23.9573 432.528C8.99567 430.344 -1.40663 416.391 0.762356 401.279C2.93134 386.212 16.7863 375.736 31.7921 377.921C46.7537 380.105 57.156 394.102 54.987 409.169ZM89.6022 543.035C67.7796 543.035 50.1179 525.248 50.1179 503.272C50.1179 481.295 67.7796 463.509 89.6022 463.509C111.425 463.509 129.087 481.295 129.087 503.272C129.087 525.204 111.425 543.035 89.6022 543.035ZM211.508 779.249C270.115 931.346 244.043 1039.94 207.923 1107.52H128.732C225.407 985.24 211.508 779.249 211.508 779.249ZM126.564 650.733C110.717 650.733 97.8798 637.806 97.8798 621.847C97.8798 605.888 110.717 592.961 126.564 592.961C142.41 592.961 155.247 605.888 155.247 621.847C155.247 637.761 142.41 650.733 126.564 650.733ZM252.852 599.425C247.85 594.298 247.894 586.007 253.029 580.925C258.163 575.843 266.353 575.977 271.399 581.103L389.276 701.997C394.278 707.123 394.234 715.414 389.099 720.496C386.576 722.993 383.301 724.241 380.025 724.241C376.661 724.241 373.297 722.948 370.774 720.318L252.852 599.425ZM246.699 507.195C244.53 522.262 230.675 532.737 215.669 530.553C200.707 528.369 190.305 514.416 192.474 499.304C194.643 484.237 208.498 473.762 223.504 475.946C238.465 478.13 248.868 492.127 246.699 507.195Z"
          fill="#1071BA" fill-opacity="0.03"/>
</svg>
