<svg width="368" height="197" viewBox="0 0 368 197" fill="none" xmlns="http://www.w3.org/2000/svg">
    <mask id="mask0" maskUnits="userSpaceOnUse" x="0" y="10" width="270" height="111">
        <rect y="10" width="270" height="111" rx="8" fill="#1071BA"/>
    </mask>
    <g mask="url(#mask0)">
        <path d="M33.5461 -9L18.4531 8.68769L67.3596 66L18.4531 123.312L33.5461 141L97.5461 66L33.5461 -9Z"
              fill="white" fill-opacity="0.5"/>
        <path d="M-14.907 -9L-30 8.68769L18.9065 66L-30 123.312L-14.907 141L49.093 66L-14.907 -9Z" fill="white"
              fill-opacity="0.5"/>
    </g>
    <path d="M262.565 57.3053L262.494 57.376H262.606C262.596 57.3558 262.576 57.3305 262.565 57.3053ZM273.672 45.3472C272.483 45.3472 271.522 46.3067 271.522 47.4883C271.522 47.761 271.573 48.0186 271.664 48.2559L262.56 57.3053L261.493 58.3657L260.07 59.7797C260.349 60.1685 260.639 60.5523 260.949 60.926L262.362 59.5221L272.605 49.3416C272.92 49.5234 273.286 49.6244 273.672 49.6244C274.862 49.6244 275.827 48.665 275.827 47.4883C275.827 46.3117 274.862 45.3472 273.672 45.3472ZM273.672 48.5943C273.576 48.5943 273.479 48.5791 273.388 48.5539C272.915 48.4327 272.564 48.0034 272.564 47.4883C272.564 47.4378 272.569 47.3974 272.574 47.3469C272.645 46.8117 273.113 46.3875 273.672 46.3875C274.287 46.3875 274.78 46.8824 274.78 47.4883C274.78 48.0994 274.287 48.5943 273.672 48.5943ZM258.519 57.376C258.545 57.4214 258.565 57.4669 258.596 57.5073L258.733 57.376H258.519ZM291.194 42.3375C290.025 42.3375 289.034 43.1 288.693 44.1504H283.635C283.64 43.9736 283.64 43.7918 283.64 43.6151C283.64 43.1152 283.63 42.696 283.61 42.292L283.579 41.7618L283.117 41.4891C278.908 39.0753 274.099 37.8078 269.224 37.8078C264.345 37.8078 259.541 39.0803 255.332 41.4891L254.864 41.7618L254.834 42.292C254.814 42.696 254.798 43.1202 254.798 43.6151C254.798 43.7918 254.798 43.9736 254.809 44.1504H249.751C249.41 43.1 248.424 42.3375 247.25 42.3375C245.801 42.3375 244.622 43.504 244.622 44.9432C244.622 46.3824 245.801 47.554 247.25 47.554C248.419 47.554 249.41 46.7915 249.751 45.7411H254.89C254.992 47.0389 255.185 48.3216 255.469 49.584H250.706V51.1798H255.876C256.333 52.7705 256.933 54.3107 257.665 55.7903H253.294C252.953 54.7349 251.967 53.9774 250.793 53.9774C249.349 53.9774 248.17 55.149 248.17 56.5882C248.17 58.0223 249.349 59.1939 250.793 59.1939C251.962 59.1939 252.953 58.4314 253.294 57.381H258.723L260.049 56.0781L260.344 55.7903L266.434 49.8163C266.708 49.9476 267.018 50.0183 267.344 50.0183C268.523 50.0183 269.494 49.0588 269.494 47.8822C269.494 46.7006 268.528 45.7411 267.344 45.7411C266.154 45.7411 265.188 46.7006 265.188 47.8822C265.188 48.2155 265.265 48.5337 265.407 48.8164L259.353 54.745C258.794 53.5936 258.321 52.4018 257.945 51.1798C257.777 50.6546 257.63 50.1244 257.503 49.584C257.198 48.3317 256.984 47.0439 256.877 45.7411C256.837 45.2108 256.801 44.6857 256.796 44.1504C256.786 43.9736 256.786 43.7918 256.786 43.6151C256.786 43.3727 256.791 43.1505 256.796 42.9384C260.583 40.868 264.868 39.7823 269.219 39.7823C273.565 39.7823 277.846 40.873 281.643 42.9384C281.653 43.1505 281.653 43.3727 281.653 43.6151C281.653 43.7918 281.653 43.9736 281.643 44.1504C281.638 44.6857 281.607 45.2108 281.561 45.7411C281.455 47.0439 281.246 48.3266 280.941 49.584C280.814 50.1193 280.667 50.6546 280.504 51.1798C280.006 52.7806 279.355 54.3208 278.552 55.7903C278.262 56.3306 277.947 56.8659 277.612 57.381C276.229 59.5524 274.511 61.532 272.508 63.2186C271.969 63.6782 271.41 64.1125 270.831 64.5215C270.312 64.8952 269.779 65.2537 269.224 65.582C268.67 65.2436 268.137 64.8952 267.613 64.5266C267.034 64.1125 266.48 63.6782 265.936 63.2237C265.661 62.9914 265.387 62.749 265.117 62.5066L270.353 57.3255C270.617 57.4467 270.907 57.5123 271.217 57.5123C272.407 57.5123 273.372 56.5528 273.372 55.3712C273.372 54.1895 272.407 53.23 271.217 53.23C270.038 53.23 269.067 54.1895 269.067 55.3712C269.067 55.7196 269.153 56.0529 269.301 56.3458L264.075 61.4916L262.662 62.8753C262.774 62.9914 262.891 63.1075 263.008 63.2237H259.551C259.297 62.5117 258.611 61.9966 257.803 61.9966C256.776 61.9966 255.947 62.8247 255.947 63.8398C255.947 64.8598 256.781 65.683 257.803 65.683C258.468 65.683 259.048 65.3345 259.378 64.8093H264.751C265.981 65.8395 267.303 66.7687 268.721 67.5817L269.224 67.8696L269.723 67.5817C271.136 66.7687 272.457 65.8395 273.687 64.8093H279.06C279.391 65.3345 279.975 65.683 280.636 65.683C281.663 65.683 282.492 64.8548 282.492 63.8398C282.492 62.8197 281.658 61.9966 280.636 61.9966C279.828 61.9966 279.142 62.5117 278.888 63.2237H275.431C277.19 61.4764 278.699 59.512 279.93 57.3861H285.145C285.486 58.4364 286.472 59.199 287.646 59.199C289.095 59.199 290.269 58.0274 290.269 56.5932C290.269 55.154 289.095 53.9825 287.646 53.9825C286.477 53.9825 285.486 54.745 285.145 55.7953H280.779C281.51 54.3208 282.105 52.7755 282.568 51.1848H287.732V49.5891H282.974C283.254 48.3317 283.447 47.049 283.549 45.7461H288.688C289.029 46.7965 290.015 47.559 291.189 47.559C292.638 47.559 293.817 46.3875 293.817 44.9483C293.822 43.504 292.643 42.3375 291.194 42.3375ZM247.255 46.2663C246.518 46.2663 245.923 45.6754 245.923 44.9483C245.923 44.2211 246.518 43.6252 247.255 43.6252C247.992 43.6252 248.587 44.2211 248.587 44.9483C248.587 45.6754 247.987 46.2663 247.255 46.2663ZM250.798 57.9011C250.061 57.9011 249.466 57.3103 249.466 56.5831C249.466 55.8509 250.066 55.2601 250.798 55.2601C251.535 55.2601 252.13 55.8509 252.13 56.5831C252.13 57.3103 251.535 57.9011 250.798 57.9011ZM267.349 46.7763C267.954 46.7763 268.457 47.2712 268.457 47.8772C268.457 48.4832 267.954 48.978 267.349 48.978H267.288C266.744 48.9477 266.302 48.5286 266.246 47.9984C266.236 47.958 266.236 47.9176 266.236 47.8772C266.236 47.2712 266.739 46.7763 267.349 46.7763ZM271.227 54.2602C271.842 54.2602 272.34 54.7551 272.34 55.3611C272.34 55.967 271.842 56.4619 271.227 56.4619H271.176C270.638 56.4367 270.211 56.0428 270.134 55.5227C270.124 55.4671 270.124 55.4116 270.124 55.3611C270.124 54.7551 270.617 54.2602 271.227 54.2602ZM257.808 64.7639C257.289 64.7639 256.862 64.3448 256.862 63.8297C256.862 63.3146 257.284 62.8904 257.808 62.8904C258.326 62.8904 258.753 63.3095 258.753 63.8297C258.748 64.3498 258.326 64.7639 257.808 64.7639ZM280.641 62.8955C281.16 62.8955 281.587 63.3146 281.587 63.8347C281.587 64.3498 281.165 64.7689 280.641 64.7689C280.123 64.7689 279.696 64.3498 279.696 63.8347C279.696 63.3146 280.123 62.8955 280.641 62.8955ZM287.651 55.255C288.388 55.255 288.983 55.8458 288.983 56.5781C288.983 57.3103 288.383 57.8961 287.651 57.8961C286.914 57.8961 286.319 57.3053 286.319 56.5781C286.314 55.8458 286.914 55.255 287.651 55.255ZM291.194 46.2663C290.457 46.2663 289.862 45.6754 289.862 44.9483C289.862 44.2211 290.462 43.6252 291.194 43.6252C291.931 43.6252 292.526 44.2211 292.526 44.9483C292.526 45.6754 291.931 46.2663 291.194 46.2663ZM245.059 2.68095C245.308 0.974102 246.899 -0.212614 248.622 0.0348292C250.34 0.282272 251.535 1.86288 251.286 3.57478C251.037 5.28163 249.446 6.46835 247.723 6.2209C246.004 5.97346 244.81 4.38781 245.059 2.68095ZM252.455 16.2095C252.455 13.8209 254.402 11.8868 256.806 11.8868C259.211 11.8868 261.157 13.8209 261.157 16.2095C261.157 18.5981 259.211 20.5322 256.806 20.5322C254.402 20.5372 252.455 18.5981 252.455 16.2095ZM275.711 100.774L277.83 100.411L277.581 98.9817C278.212 98.7898 278.816 98.5222 279.381 98.1788L280.301 99.2696L281.948 97.896L281.038 96.8204C281.439 96.381 281.79 95.8912 282.085 95.3559L283.412 95.8609L284.184 93.8713L282.852 93.3612C282.99 92.7654 283.056 92.1695 283.051 91.5786L284.479 91.3817L284.184 89.2658L282.725 89.4678C282.537 88.8467 282.273 88.2508 281.937 87.6953L283.117 86.7762L281.79 85.0946L280.58 86.0389C280.123 85.6249 279.614 85.2613 279.055 84.9532L279.63 83.4736L277.627 82.706L277.047 84.2008C275.787 83.918 274.511 83.9584 273.321 84.2816L272.651 82.4333L270.607 83.1656L271.324 85.135C270.226 85.8016 269.285 86.7459 268.63 87.9124L267.018 87.2963L266.246 89.2911L267.847 89.9021C267.715 90.4475 267.649 90.9979 267.644 91.5483L265.956 91.7806L266.256 93.8965L267.918 93.6642C268.081 94.2601 268.309 94.8408 268.614 95.3761L267.323 96.3811L268.65 98.0627L269.911 97.0779C270.394 97.5577 270.953 97.9768 271.573 98.3202L271.014 99.7594L273.022 100.527L273.576 99.0979C274.206 99.2494 274.846 99.3201 275.472 99.31L275.711 100.774ZM273.128 97.3607C269.962 96.1488 268.386 92.6189 269.606 89.4728C270.068 88.276 270.866 87.3064 271.858 86.6348C272.462 86.2258 273.133 85.9228 273.845 85.746C275.035 85.4481 276.321 85.4986 277.546 85.9682C280.616 87.1398 282.181 90.503 281.165 93.5733L280.946 94.1339C280.59 94.9317 280.087 95.6135 279.477 96.169L279.096 96.4871C277.459 97.7445 275.212 98.1586 273.128 97.3607ZM232.051 47.9681C233.535 37.3331 240.952 31.0107 241.267 30.7481C242.421 29.7835 244.144 29.93 245.12 31.0713C246.091 32.2176 245.949 33.9244 244.8 34.8889C244.723 34.9546 238.649 40.2115 237.465 48.7104C237.266 50.1244 236.006 51.1343 234.593 51.0485C234.522 51.0434 234.455 51.0384 234.384 51.0283C232.89 50.8212 231.848 49.4527 232.051 47.9681ZM228.437 43.8878C228.188 45.5946 226.597 46.7814 224.874 46.5339C223.156 46.2865 221.961 44.7059 222.21 42.994C222.459 41.2871 224.05 40.1004 225.773 40.3478C227.492 40.5902 228.681 42.1759 228.437 43.8878ZM239.406 17.3407C240.616 16.4418 242.329 16.6893 243.234 17.8861C244.139 19.0879 243.89 20.7847 242.685 21.6836C242.573 21.7694 234.654 27.7535 230.13 36.308C229.611 37.2876 228.579 37.8179 227.537 37.7573C227.166 37.732 226.79 37.6361 226.439 37.4492C225.102 36.7523 224.589 35.1111 225.29 33.783C230.414 24.0974 239.046 17.6083 239.406 17.3407ZM261.157 2.82235C261.157 1.43364 262.291 0.307521 263.689 0.307521C265.087 0.307521 266.22 1.43364 266.22 2.82235C266.22 4.21106 265.087 5.33718 263.689 5.33718C262.291 5.33213 261.157 4.21106 261.157 2.82235ZM274.374 7.37227C274.374 6.3118 275.238 5.45333 276.305 5.45333C277.373 5.45333 278.237 6.3118 278.237 7.37227C278.237 8.43274 277.373 9.29122 276.305 9.29122C275.238 9.28617 274.374 8.42769 274.374 7.37227ZM286.751 30.1017C286.751 28.8746 287.753 27.8797 288.988 27.8797C290.223 27.8797 291.224 28.8746 291.224 30.1017C291.224 31.3288 290.223 32.3236 288.988 32.3236C287.753 32.3236 286.751 31.3288 286.751 30.1017ZM278.862 22.1583C278.862 20.305 280.377 18.8001 282.242 18.8001C284.108 18.8001 285.623 20.305 285.623 22.1583C285.623 24.0116 284.108 25.5164 282.242 25.5164C280.377 25.5164 278.862 24.0116 278.862 22.1583ZM286.258 76.732L286.512 78.5349L287.931 78.3379C288.073 78.8479 288.266 79.3428 288.52 79.7973L287.422 80.6558L288.556 82.09L289.633 81.2517C290.045 81.6607 290.523 82.0193 291.052 82.3121L290.574 83.5393L292.287 84.1907L292.76 82.9737C293.298 83.105 293.842 83.1656 294.376 83.1555L294.59 84.3977L296.399 84.0897L296.186 82.8727C296.724 82.7111 297.238 82.4788 297.721 82.1859L298.509 83.1151L299.912 81.9435L299.134 81.0244C299.474 80.6507 299.774 80.2316 300.029 79.7771L301.157 80.2114L301.813 78.5146L300.674 78.0804C300.791 77.5754 300.847 77.0653 300.842 76.5604L302.057 76.3937L301.808 74.5909L300.567 74.7626C300.405 74.2324 300.181 73.7223 299.891 73.2527L300.898 72.47L299.764 71.0358L298.732 71.8387C298.346 71.4853 297.909 71.1722 297.431 70.9146L297.919 69.6522L296.211 68.9957L295.718 70.2682C294.645 70.0258 293.558 70.0612 292.541 70.3389L291.967 68.7634L290.223 69.3896L290.833 71.0712C289.898 71.6418 289.095 72.4447 288.535 73.4395L287.163 72.9144L286.502 74.6162L287.87 75.1363C287.758 75.6009 287.702 76.0705 287.697 76.5402L286.258 76.732ZM289.384 74.7576C289.781 73.7375 290.462 72.9144 291.306 72.3387C291.819 71.9902 292.394 71.7276 292.998 71.5812C294.01 71.3287 295.108 71.3742 296.155 71.7731C298.773 72.773 300.11 75.6413 299.241 78.2571L299.058 78.7318C298.758 79.4085 298.326 79.9943 297.807 80.4639L297.482 80.7315C296.084 81.8072 294.168 82.1607 292.394 81.4789C289.689 80.4538 288.342 77.439 289.384 74.7576ZM267.405 17.1639C267.405 15.0531 269.128 13.3412 271.253 13.3412C273.377 13.3412 275.101 15.0531 275.101 17.1639C275.101 19.2748 273.377 20.9867 271.253 20.9867C269.128 20.9867 267.405 19.2748 267.405 17.1639ZM214.906 30.1673C221.005 16.0429 235.187 7.38742 235.787 7.02383C237.073 6.24615 238.756 6.65519 239.539 7.93786C240.321 9.22052 239.91 10.887 238.619 11.6646C238.385 11.806 225.301 19.8606 219.928 32.3034C219.46 33.3891 218.367 34.0153 217.249 33.9446C216.944 33.9244 216.639 33.8537 216.344 33.7275C214.951 33.1417 214.311 31.5459 214.906 30.1673ZM229.718 79.1358C231.05 79.1358 232.127 80.2064 232.127 81.5294C232.127 82.8525 231.05 83.923 229.718 83.923C228.386 83.923 227.309 82.8525 227.309 81.5294C227.309 80.2114 228.386 79.1358 229.718 79.1358ZM259.119 75.5807C259.693 76.1614 259.688 77.1007 259.099 77.6764C258.809 77.9592 258.433 78.1006 258.057 78.1006C257.67 78.1006 257.284 77.9541 256.994 77.6562L243.458 63.961C242.883 63.3802 242.888 62.441 243.478 61.8653C244.068 61.2896 245.008 61.3047 245.588 61.8855L259.119 75.5807ZM259.068 89.4779L258.895 88.2508L258.052 88.3669C257.945 88.0033 257.787 87.66 257.594 87.3418L258.275 86.8065L257.508 85.8319L256.806 86.3773C256.542 86.1349 256.247 85.9278 255.922 85.7511L256.252 84.8926L255.088 84.4482L254.753 85.3118C254.021 85.1451 253.284 85.1704 252.592 85.3572L252.201 84.2866L251.016 84.7108L251.433 85.8521C250.798 86.2409 250.254 86.7863 249.873 87.463L248.937 87.1045L248.49 88.2609L249.42 88.6144C249.344 88.9325 249.303 89.2506 249.303 89.5688L248.322 89.7001L248.495 90.9272L249.456 90.7959C249.553 91.1443 249.685 91.4776 249.858 91.7907L249.11 92.3765L249.878 93.3511L250.61 92.7805C250.889 93.0582 251.215 93.3006 251.576 93.5026L251.25 94.3359L252.414 94.7802L252.735 93.9521C253.101 94.0379 253.472 94.0834 253.833 94.0733L253.98 94.9166L255.21 94.7095L255.068 93.8814C255.434 93.7703 255.785 93.6137 256.11 93.4168L256.644 94.048L257.599 93.2501L257.071 92.624C257.304 92.3715 257.508 92.0836 257.681 91.7756L258.448 92.0685L258.895 90.912L258.123 90.6141C258.204 90.2707 258.24 89.9223 258.235 89.5789L259.068 89.4779ZM257.152 90.7454L257.025 91.0686C256.821 91.5281 256.527 91.9271 256.176 92.2452L255.957 92.427C255.007 93.1592 253.705 93.3966 252.496 92.937C250.661 92.2351 249.746 90.1899 250.452 88.3669C250.722 87.6751 251.184 87.1146 251.759 86.7207C252.109 86.4833 252.501 86.3066 252.907 86.2056C253.594 86.0339 254.341 86.0642 255.053 86.3369C256.832 87.0186 257.742 88.9679 257.152 90.7454ZM291.555 75.5908C292.134 74.1011 293.817 73.3587 295.316 73.9344C296.816 74.5101 297.563 76.1816 296.984 77.6713C296.404 79.161 294.722 79.9034 293.222 79.3277C291.728 78.752 290.98 77.0805 291.555 75.5908ZM274.114 94.8257C272.356 94.1541 271.481 92.1897 272.157 90.4424C272.833 88.6952 274.811 87.8266 276.57 88.4982C278.328 89.1699 279.203 91.1342 278.527 92.8815C277.846 94.6287 275.873 95.4973 274.114 94.8257ZM313.718 93.2653C313.718 93.2653 313.799 93.5582 312.182 93.644C311.644 93.6743 311.212 94.1137 311.212 94.654C311.212 94.8509 311.267 95.0428 311.379 95.2044C311.852 95.9013 313.026 98.0222 310.734 99.0524C307.968 100.295 309.519 101.36 309.554 102.385C309.595 103.41 312.777 112.899 300.039 114.611C300.039 114.611 293.176 115.096 286.99 113.056C284.957 112.389 282.69 113.248 281.638 115.101C280.397 117.287 279.477 120.731 280.814 125.746C281.094 126.801 281.449 127.801 281.866 128.756C281.866 128.756 270.028 121.62 277.027 108.794C277.027 108.794 293.181 113.995 299.968 109.233C299.968 109.233 305.793 104.688 302.402 97.29C302.402 97.29 308.304 95.6387 304.69 90.6192L307.17 90.3263C307.17 90.3263 307.658 86.7712 306.266 84.3775C305.752 83.4989 306.072 82.3626 307.023 81.9839C307.308 81.8678 307.648 81.7769 308.055 81.7264C310.266 81.4335 315.329 79.2822 313.265 76.3533C311.201 73.4244 308.004 69.6118 306.133 66.9757C304.263 64.3397 304.217 60.6281 305.742 56.2751C307.267 51.9272 309.036 44.2312 299.891 34.9293C299.891 34.9293 300.669 34.3789 302.916 34.6718C302.916 34.6718 305.595 28.5312 285.587 13.3362C285.943 13.5179 308.894 25.3548 309.285 38.0552L306.53 37.7623C306.53 37.7623 314.129 45.7764 313.316 52.2251C312.503 58.6738 310.515 62.85 311.323 67.3949C312.137 71.9397 329.765 82.7111 312.726 85.5693C312.721 85.5693 311.578 86.1904 313.718 93.2653ZM255.617 90.3465C255.225 91.3564 254.082 91.8614 253.06 91.4726C252.043 91.0837 251.535 89.9475 251.926 88.9325C252.318 87.9175 253.461 87.4175 254.483 87.8064C255.505 88.1952 256.013 89.3365 255.617 90.3465ZM247.58 79.0045C248.165 79.5802 248.165 80.5194 247.585 81.1002C247.296 81.388 246.914 81.5345 246.528 81.5345C246.147 81.5345 245.766 81.3931 245.476 81.1002L239.742 75.4241C239.157 74.8485 239.157 73.9092 239.737 73.3285C240.316 72.7477 241.262 72.7477 241.846 73.3234L247.58 79.0045ZM216.761 46.3521C216.512 48.059 214.921 49.2457 213.198 48.9982C211.479 48.7508 210.285 47.1702 210.534 45.4583C210.783 43.7514 212.374 42.5647 214.097 42.8122C215.815 43.0596 217.01 44.6453 216.761 46.3521ZM220.736 61.5168C218.23 61.5168 216.202 59.5019 216.202 57.0124C216.202 54.5228 218.23 52.5079 220.736 52.5079C223.242 52.5079 225.27 54.5228 225.27 57.0124C225.27 59.4969 223.242 61.5168 220.736 61.5168ZM234.735 88.276C241.465 105.506 238.471 117.808 234.323 125.463H225.229C236.331 111.611 234.735 88.276 234.735 88.276ZM224.98 73.7173C223.161 73.7173 221.687 72.2528 221.687 70.445C221.687 68.6371 223.161 67.1727 224.98 67.1727C226.8 67.1727 228.274 68.6371 228.274 70.445C228.274 72.2478 226.8 73.7173 224.98 73.7173ZM239.483 67.9049C238.908 67.3242 238.913 66.3849 239.503 65.8092C240.093 65.2335 241.033 65.2487 241.613 65.8294L255.149 79.5246C255.724 80.1054 255.718 81.0446 255.129 81.6203C254.839 81.9031 254.463 82.0445 254.087 82.0445C253.7 82.0445 253.314 81.8981 253.024 81.6001L239.483 67.9049ZM238.776 57.4568C238.527 59.1636 236.936 60.3503 235.213 60.1029C233.495 59.8554 232.3 58.2748 232.549 56.5629C232.798 54.8561 234.389 53.6694 236.113 53.9168C237.831 54.1642 239.025 55.7499 238.776 57.4568Z"
          fill="white" fill-opacity="0.05"/>
</svg>
