<svg width="20" height="20" viewBox="0 0 20 20" fill="none" xmlns="http://www.w3.org/2000/svg">
<path d="M17.2169 1.37335C16.2089 0.367087 14.5765 0.367087 13.5684 1.37335L12.6551 2.29164L2.93326 12.0084L2.91259 12.0292C2.90759 12.0342 2.90759 12.0395 2.90226 12.0395C2.89193 12.055 2.87644 12.0703 2.86627 12.0858C2.86627 12.091 2.86094 12.091 2.86094 12.0962C2.85061 12.1117 2.84561 12.122 2.83512 12.1375C2.83011 12.1427 2.83011 12.1477 2.82495 12.153C2.81978 12.1685 2.81462 12.1788 2.80929 12.1943C2.80929 12.1993 2.80429 12.1993 2.80429 12.2046L0.647292 18.691C0.584018 18.8756 0.632119 19.0801 0.771098 19.2172C0.868754 19.3135 1.00047 19.3674 1.13751 19.367C1.19352 19.366 1.24905 19.3573 1.30264 19.3411L7.78395 17.179C7.78895 17.179 7.78895 17.179 7.79428 17.174C7.81058 17.1691 7.82624 17.1622 7.8406 17.1531C7.84464 17.1527 7.84819 17.1509 7.8511 17.1481C7.86643 17.1378 7.88709 17.1273 7.90259 17.117C7.91792 17.1068 7.93358 17.0913 7.94908 17.081C7.95424 17.0757 7.95924 17.0757 7.95924 17.0707C7.96457 17.0655 7.9749 17.0605 7.98007 17.05L18.6152 6.41483C19.6215 5.4068 19.6215 3.7744 18.6152 2.76653L17.2169 1.37335ZM7.61882 15.9663L4.02733 12.3749L13.0164 3.38588L16.6079 6.9772L7.61882 15.9663ZM3.52145 13.3295L6.65904 16.467L1.94765 18.0356L3.52145 13.3295ZM17.8877 5.69234L17.3407 6.24454L13.749 2.65289L14.3014 2.10085C14.9056 1.49716 15.8849 1.49716 16.4892 2.10085L17.8927 3.50435C18.4924 4.11128 18.4901 5.08832 17.8877 5.69234Z" fill="black"/>
</svg>
