<svg width="14" height="14" viewBox="0 0 14 14" fill="none" xmlns="http://www.w3.org/2000/svg">
<g clip-path="url(#clip0)">
<path d="M13.3643 0H8.27335C7.9219 0 7.63698 0.284922 7.63698 0.636371C7.63698 0.98782 7.9219 1.27274 8.27335 1.27274H11.828L5.27795 7.82277C5.02942 8.0713 5.02942 8.47418 5.27795 8.72271C5.40217 8.84696 5.56503 8.90909 5.72789 8.90909C5.89075 8.90909 6.05364 8.84699 6.17789 8.72268L12.7279 2.17268V5.72729C12.7279 6.07873 13.0128 6.36366 13.3643 6.36366C13.7157 6.36366 14.0007 6.07873 14.0007 5.72729V0.636371C14.0006 0.284922 13.7157 0 13.3643 0Z" fill="#1071BA"/>
<path d="M10.8182 6.36358C10.4667 6.36358 10.1818 6.6485 10.1818 6.99995V12.7272H1.27271V3.81812H7C7.35145 3.81812 7.63637 3.5332 7.63637 3.18175C7.63637 2.8303 7.35145 2.54541 7 2.54541H0.636371C0.284922 2.54541 0 2.83033 0 3.18178V13.3636C0 13.715 0.284922 14 0.636371 14H10.8182C11.1696 14 11.4546 13.715 11.4546 13.3636V6.99995C11.4545 6.6485 11.1696 6.36358 10.8182 6.36358Z" fill="#1071BA"/>
</g>
<defs>
<clipPath id="clip0">
<rect width="14" height="14" fill="white"/>
</clipPath>
</defs>
</svg>
