<svg width="1920" height="810" viewBox="0 0 1920 810" fill="none" xmlns="http://www.w3.org/2000/svg">
<g opacity="0.25">
<path d="M1944.49 100.096C1901.03 147.423 1850.49 192.272 1786.74 222.402C1700.42 263.212 1580.81 273.253 1502.61 222.63C1412.57 164.34 1357.97 102.598 1223.96 108.311C1129.46 112.336 1021.04 153.659 976.054 221.58C949.349 261.882 937.012 306.644 915.763 348.78C864.793 449.823 764.018 483.43 637.74 446.063C577.436 428.22 509.108 407.437 449.868 430.156C372.189 459.935 351.253 550.512 269.444 571.899C224.749 583.586 177.605 569.897 132.664 561.108C25.6179 540.158 -10.0255 614.831 -104.989 616.137C-128.812 616.472 -151.271 608.678 -174.846 606.526C-199.194 604.312 -245.409 614.177 -234.329 639.768" stroke="#1071BA" stroke-opacity="0.3" stroke-width="1.0073" stroke-miterlimit="10" stroke-linecap="round" stroke-linejoin="round"/>
<path d="M1942.44 122.158C1899.23 169.248 1847.29 212.015 1783.02 239.808C1736.95 259.801 1682.18 271.133 1629.56 269.896C1583.1 268.777 1538.18 257.998 1501.6 234.948C1434.39 192.558 1385.67 147.952 1310.35 129.617C1285.36 123.517 1257.37 120.384 1224.89 121.015C1131.08 122.845 1024.08 159.956 975.89 225.15C947.056 264.181 932.495 308.484 910.429 350.647C899.126 372.313 885.785 391.138 870.498 407.003C815.822 463.55 737.233 478.167 637.352 457.312C605.722 450.709 571.875 440.537 538.481 433.924C495.1 425.384 450.23 425.241 409.63 440.635C336.316 468.693 314.462 552.578 237.227 573.499C195.081 584.887 150.685 573.268 108.312 565.804C7.95005 548.135 -27.4154 616.534 -116.819 617.268C-139.305 617.439 -160.533 610.167 -182.79 607.908C-205.77 605.582 -248.677 614.118 -239.486 636.831" stroke="#1071BA" stroke-opacity="0.3" stroke-width="1.0073" stroke-miterlimit="10" stroke-linecap="round" stroke-linejoin="round"/>
<path d="M1940.37 144.22C1897.44 191.055 1844.08 231.748 1779.28 257.208C1733.04 275.506 1678.78 285.178 1627.02 282.866C1581.25 280.797 1537.11 269.627 1500.6 247.264C1433.87 206.304 1384.08 162.859 1309.85 143.807C1285.12 137.426 1257.54 133.884 1225.82 133.741C1132.73 133.345 1027.05 166.301 975.761 228.761C944.751 266.529 928.045 310.348 905.139 352.541C893.605 373.957 880.3 392.867 865.248 409.033C811.85 466.054 736.342 482.76 637.015 468.608C599.386 463.255 559.703 451.02 520.556 442.898C470.18 432.456 416.921 433.183 369.419 451.198C300.354 477.392 277.736 554.754 205.049 575.199C165.477 586.29 123.802 576.729 83.9976 570.61C-9.68405 556.212 -44.7888 618.362 -128.608 618.512C-149.756 618.539 -169.757 611.755 -190.695 609.408C-212.334 606.955 -251.906 614.184 -244.575 634.034" stroke="#1071BA" stroke-opacity="0.3" stroke-width="1.0073" stroke-miterlimit="10" stroke-linecap="round" stroke-linejoin="round"/>
<path d="M1938.33 166.258C1895.66 212.86 1840.84 251.374 1775.57 274.586C1729.09 291.123 1675.41 299.202 1624.48 295.835C1579.41 292.818 1536.07 281.271 1499.6 259.598C1433.36 220.068 1382.48 177.783 1309.36 158.014C1284.88 151.352 1257.69 147.386 1226.79 146.499C1134.37 143.844 1030 172.667 975.638 232.41C942.426 268.918 923.602 312.268 899.831 354.495C888.041 375.663 874.848 394.668 859.982 411.139C808.021 468.71 734.596 488.687 636.689 479.995C592.801 476.085 547.517 461.614 502.664 451.943C445.294 439.617 383.705 441.281 329.268 461.829C264.565 486.274 241.043 557.002 172.903 576.955C135.88 587.751 96.9759 580.242 59.7148 575.47C-27.238 564.319 -62.1052 620.242 -140.389 619.831C-160.173 619.711 -178.971 613.435 -198.594 610.965C-218.891 608.404 -255.128 614.306 -249.684 631.279" stroke="#1071BA" stroke-opacity="0.3" stroke-width="1.0073" stroke-miterlimit="10" stroke-linecap="round" stroke-linejoin="round"/>
<path d="M1936.29 188.31C1893.87 234.679 1837.66 271.082 1771.87 291.981C1725.2 306.806 1672.04 313.244 1621.96 308.819C1577.59 304.854 1535.02 292.915 1498.63 271.93C1432.84 233.829 1380.92 192.72 1308.87 172.218C1284.64 165.274 1257.83 160.866 1227.75 159.236C1136.01 154.287 1032.89 179.002 975.513 236.041C940.072 271.274 919.025 314.132 894.547 356.432C882.472 377.318 869.391 396.418 854.739 413.211C804.081 471.273 732.457 495.48 636.357 491.33C586.062 489.152 535.35 472.137 484.741 460.939C420.379 446.729 350.434 449.334 289.063 472.433C228.699 495.15 204.297 559.227 140.73 578.701C106.281 589.2 70.121 583.727 35.4285 580.3C-44.7975 572.376 -79.4272 622.076 -152.149 621.119C-170.594 620.853 -188.164 615.084 -206.469 612.508C-225.424 609.839 -258.325 614.433 -254.768 628.53" stroke="#1071BA" stroke-opacity="0.3" stroke-width="1.0073" stroke-miterlimit="10" stroke-linecap="round" stroke-linejoin="round"/>
<path d="M1934.24 210.36C1892.11 256.494 1834.48 290.807 1768.19 309.372C1721.34 322.503 1668.67 327.285 1619.45 321.803C1575.77 316.89 1534.01 304.574 1497.66 284.26C1432.36 247.588 1379.35 207.637 1308.4 186.419C1284.39 179.197 1258.01 174.326 1228.71 171.973C1137.65 164.676 1035.76 185.322 975.414 239.671C937.717 273.614 914.604 316.017 889.287 358.349C876.956 378.987 863.96 398.167 849.519 415.264C800.14 473.819 730.203 502.887 636.049 502.644C579.25 502.499 523.183 482.659 466.868 469.913C395.485 453.804 317.237 457.361 248.905 482.995C192.908 504 167.596 561.393 108.602 580.39C76.7023 590.595 43.3131 587.173 11.164 585.092C-62.2868 580.372 -96.7254 623.889 -163.889 622.351C-180.997 621.923 -197.364 616.661 -214.35 613.998C-231.962 611.221 -261.529 614.489 -259.834 625.707" stroke="#1071BA" stroke-opacity="0.3" stroke-width="1.0073" stroke-miterlimit="10" stroke-linecap="round" stroke-linejoin="round"/>
<path d="M1932.18 232.388C1890.32 278.286 1831.3 310.507 1764.45 326.763C1717.43 338.2 1665.27 341.324 1616.92 334.785C1573.92 328.906 1532.94 316.216 1496.64 296.592C1431.82 261.347 1377.74 222.556 1307.88 200.62C1284.13 193.117 1258.15 187.766 1229.65 184.726C1139.28 175.043 1038.55 191.647 975.266 243.322C935.288 275.979 910.109 317.927 883.98 360.305C871.416 380.675 858.455 399.941 844.253 417.374C796.151 476.405 726.39 496.964 635.721 514.011C573.505 525.706 511.019 493.214 448.95 478.942C370.574 460.951 283.997 465.463 208.727 493.611C157.098 512.922 130.903 563.63 76.457 582.152C47.1311 592.059 16.509 590.652 -13.1183 589.957C-79.7725 588.4 -114.067 625.779 -175.67 623.676C-191.44 623.104 -206.578 618.348 -222.249 615.562C-238.521 612.658 -264.726 614.616 -264.942 622.98" stroke="#1071BA" stroke-opacity="0.3" stroke-width="1.0073" stroke-miterlimit="10" stroke-linecap="round" stroke-linejoin="round"/>
<path d="M1930.13 254.428C1888.54 300.076 1828.12 330.241 1760.74 344.149C1713.55 353.893 1661.9 355.359 1614.4 347.745C1572.1 340.918 1531.92 327.852 1495.66 308.899C1431.33 275.081 1376.17 237.449 1307.41 214.797C1283.91 207.012 1258.34 201.181 1230.64 197.437C1140.95 185.314 1041.33 197.9 975.163 246.932C932.875 278.269 905.712 319.808 878.716 362.203C865.922 382.323 853.019 401.653 839.03 419.408C792.178 478.898 723.934 507.305 635.409 525.302C567.142 539.198 498.849 503.714 431.048 487.896C345.679 468.023 250.776 473.508 168.541 504.155C121.305 521.769 94.1756 565.799 44.3012 583.826C17.5242 593.439 -10.2822 594.022 -37.3859 594.729C-97.1969 596.294 -131.368 627.574 -187.411 624.908C-201.817 624.189 -215.752 619.94 -230.106 617.049C-245.035 614.037 -267.906 614.669 -269.984 620.156" stroke="#1071BA" stroke-opacity="0.3" stroke-width="1.0073" stroke-miterlimit="10" stroke-linecap="round" stroke-linejoin="round"/>
<path d="M1928.09 276.464C1886.75 321.88 1824.94 349.971 1757.04 361.533C1709.66 369.602 1658.53 369.392 1611.87 360.724C1570.25 352.949 1530.85 339.492 1494.67 321.225C1430.81 288.833 1374.58 252.378 1306.9 228.994C1283.64 220.928 1258.48 214.598 1231.55 210.189C1142.6 195.585 1044.04 204.16 974.99 250.586C930.366 280.607 901.324 321.762 873.384 364.164C860.411 384.046 847.436 403.419 833.763 421.501C788.003 481.414 721.981 518.282 635.056 536.669C560.598 552.417 486.66 514.269 413.129 496.925C320.765 475.152 217.565 481.643 128.366 514.788C85.498 530.709 57.4574 568.041 12.1581 585.609C-12.0447 594.925 -37.0629 597.482 -61.6662 599.613C-114.618 604.206 -148.683 629.481 -199.167 626.234C-212.234 625.37 -224.943 621.608 -237.978 618.629C-251.539 615.506 -271.102 614.816 -275.064 617.448" stroke="#1071BA" stroke-opacity="0.3" stroke-width="1.0073" stroke-miterlimit="10" stroke-linecap="round" stroke-linejoin="round"/>
<path d="M1926.05 298.498C1884.97 343.687 1821.8 369.814 1753.34 378.924C1705.79 385.372 1655.16 383.433 1609.36 373.707C1568.44 364.983 1529.84 351.128 1493.7 333.548C1430.3 302.581 1373.01 267.276 1306.43 243.19C1283.43 234.842 1258.67 227.994 1232.54 222.916C1144.35 205.772 1046.77 210.363 974.919 254.215C927.931 282.89 896.932 323.657 868.155 366.114C854.927 385.751 842.037 405.206 828.577 423.612C784.093 484.008 720.639 529.72 634.806 548.045C553.994 565.299 474.549 524.832 395.288 505.958C295.93 482.3 184.432 489.796 88.2391 525.409C49.7668 539.654 20.8156 570.294 -19.9378 587.371C-41.5916 596.393 -63.802 600.869 -85.8995 604.477C-132.003 612.008 -165.95 631.371 -210.9 627.562C-222.63 626.535 -234.109 623.296 -245.829 620.193C-258.048 616.961 -274.276 614.946 -280.1 614.701" stroke="#1071BA" stroke-opacity="0.3" stroke-width="1.0073" stroke-miterlimit="10" stroke-linecap="round" stroke-linejoin="round"/>
<path d="M1923.99 320.553C1883.2 365.512 1818.6 389.553 1749.61 396.335C1701.89 401.092 1651.77 397.494 1606.8 386.712C1566.57 377.039 1528.75 362.809 1492.69 345.894C1429.77 316.348 1371.4 282.197 1305.92 257.39C1283.17 248.759 1258.84 241.392 1233.48 235.647C1146.08 215.903 1049.44 216.532 974.772 257.85C925.441 285.14 892.466 325.576 862.848 368.052C849.387 387.424 836.532 406.967 823.31 425.694C780.103 486.572 720.602 544.568 634.451 559.395C546.242 574.572 462.359 535.384 377.367 514.962C270.99 489.421 151.34 498.09 48.0579 535.999C13.9847 548.603 -15.9063 572.518 -52.0865 589.119C-71.1662 597.846 -90.5995 604.188 -110.185 609.327C-149.505 619.658 -183.295 633.251 -222.66 628.874C-233.027 627.7 -243.304 624.951 -253.705 621.759C-264.583 618.401 -277.476 615.078 -285.185 611.978" stroke="#1071BA" stroke-opacity="0.3" stroke-width="1.0073" stroke-miterlimit="10" stroke-linecap="round" stroke-linejoin="round"/>
<path d="M1921.96 342.607C1853.48 418.147 1712.4 428.767 1604.3 399.715C1496.2 370.662 1407.01 311.87 1305.43 271.587C1203.86 231.303 1074.2 211.628 974.654 261.499C899.687 299.045 860.002 366.429 818.049 427.812C776.121 489.193 719.387 553.321 634.101 570.786C540.116 590.047 450.148 545.961 359.425 524.007C246.053 496.562 118.078 506.222 7.83068 546.633C-83.8249 580.229 -185.918 674.424 -290.32 609.263" stroke="#1071BA" stroke-opacity="0.3" stroke-width="1.0073" stroke-miterlimit="10" stroke-linecap="round" stroke-linejoin="round"/>
<path d="M1920.32 355.68C1843.14 435.833 1690.78 447.071 1574.76 413.389C1471.17 383.315 1384.6 326.645 1285.54 288.583C1183.52 249.365 1055.49 235.712 958.789 287.355C885.359 326.873 844.03 392.702 797.075 447.581C750.598 501.916 694.305 556.656 611.16 569.227C520.02 583.007 431.816 539.893 342.049 519.739C231.641 494.953 108.699 506.8 2.2545 546.681C-86.8349 580.135 -197.298 678.028 -296.018 608.127" stroke="#1071BA" stroke-opacity="0.3" stroke-width="1.0073" stroke-miterlimit="10" stroke-linecap="round" stroke-linejoin="round"/>
<path d="M1918.71 368.751C1832.82 453.496 1669.18 465.499 1545.24 427.063C1446 396.277 1362.16 341.482 1265.65 305.561C1163.13 267.432 1036.52 259.53 942.924 313.188C870.835 354.515 828.345 418.775 776.101 467.347C725.345 514.521 669.303 560.009 588.221 567.678C499.957 576.032 413.481 533.804 324.675 515.484C217.251 493.317 99.3217 507.387 -3.29748 546.716C-89.7975 580.01 -208.655 681.6 -301.69 606.998" stroke="#1071BA" stroke-opacity="0.3" stroke-width="1.0073" stroke-miterlimit="10" stroke-linecap="round" stroke-linejoin="round"/>
<path d="M1917.09 381.871C1822.49 471.226 1647.5 484.146 1515.74 440.773C1420.74 409.496 1339.73 356.329 1245.76 322.556C1142.72 285.507 1017.73 283.526 927.042 339.051C856.407 382.292 813.016 444.788 755.087 487.165C700.454 527.13 644.29 563.476 565.242 566.213C479.906 569.155 395.128 527.767 307.258 511.295C202.865 491.714 89.899 508.031 -8.91995 546.82C-92.854 579.98 -220.08 685.287 -307.459 605.95" stroke="#1071BA" stroke-opacity="0.3" stroke-width="1.0073" stroke-miterlimit="10" stroke-linecap="round" stroke-linejoin="round"/>
<path d="M1915.47 394.992C1812.16 488.957 1625.72 502.986 1486.22 454.505C1395.35 422.931 1317.23 371.257 1225.88 339.552C1122.29 303.62 998.976 307.537 911.185 364.892C842.008 410.082 798.147 470.787 734.125 506.978C676.081 539.795 619.358 566.974 542.312 564.727C459.913 562.331 376.873 521.687 289.865 507.089C188.501 490.057 80.5012 508.658 -14.5175 546.906C-95.8876 579.914 -231.482 688.938 -313.18 604.864" stroke="#1071BA" stroke-opacity="0.3" stroke-width="1.0073" stroke-miterlimit="10" stroke-linecap="round" stroke-linejoin="round"/>
<path d="M1913.85 408.112C1801.85 506.684 1603.82 521.984 1456.72 468.234C1369.87 436.501 1294.75 386.199 1206 356.563C1101.84 321.787 980.222 331.598 895.328 390.746C827.635 437.902 783.726 496.934 713.16 526.79C652.08 552.619 594.431 570.545 519.358 563.265C439.924 555.564 358.592 515.612 272.473 502.902C174.158 488.381 71.1031 509.303 -20.1136 547.029C-98.9196 579.886 -242.881 692.644 -318.897 603.834" stroke="#1071BA" stroke-opacity="0.3" stroke-width="1.0073" stroke-miterlimit="10" stroke-linecap="round" stroke-linejoin="round"/>
<path d="M1912.23 421.233C1791.53 524.414 1581.8 541.196 1427.19 481.966C1344.27 450.193 1272.18 401.169 1186.1 373.576C1081.35 339.995 961.496 355.672 879.449 416.62C813.268 465.756 769.573 523.433 692.15 546.642C628.32 565.782 569.464 574.196 496.384 561.844C419.922 548.911 340.287 509.542 255.061 498.757C159.841 486.705 61.596 509.871 -25.7061 547.173C-102.01 579.775 -254.278 696.354 -324.613 602.806" stroke="#1071BA" stroke-opacity="0.3" stroke-width="1.0073" stroke-miterlimit="10" stroke-linecap="round" stroke-linejoin="round"/>
<path d="M1910.64 434.351C1781.22 542.143 1559.59 560.611 1397.72 495.676C1318.63 463.946 1249.66 416.17 1166.26 390.545C1060.88 358.181 942.871 379.734 863.639 442.43C799 493.58 755.583 550.26 671.233 566.413C604.712 579.166 544.572 577.841 473.503 560.343C399.969 542.237 322.12 503.334 237.742 494.531C145.615 484.911 52.2715 510.476 -31.2305 547.238C-104.968 579.707 -265.605 700.003 -330.284 601.721" stroke="#1071BA" stroke-opacity="0.3" stroke-width="1.0073" stroke-miterlimit="10" stroke-linecap="round" stroke-linejoin="round"/>
<path d="M1909.02 447.489C1770.9 559.89 1537.13 580.287 1368.2 509.426C1292.86 477.838 1227.07 431.231 1146.36 407.572C1040.32 376.482 924.2 403.851 847.759 468.298C784.685 521.46 740.544 571.758 650.246 586.243C581.549 597.266 519.562 581.589 450.551 558.904C379.899 535.668 303.88 497.169 220.352 490.368C131.336 483.122 42.9647 511.259 -36.8262 547.364C-107.913 579.782 -277.005 703.697 -336.001 600.694" stroke="#1071BA" stroke-opacity="0.3" stroke-width="1.0073" stroke-miterlimit="10" stroke-linecap="round" stroke-linejoin="round"/>
<path d="M1907.39 460.558C1760.56 577.608 1514.44 600.179 1338.69 523.112C1267.05 491.695 1204.47 446.235 1126.46 424.494C1019.74 394.72 905.568 427.89 831.889 494.077C770.436 549.28 726.95 605.072 629.272 606.036C556.908 606.759 494.468 585.338 427.611 557.407C359.792 529.071 285.666 490.844 202.968 486.096C117.057 481.167 33.5735 511.822 -42.3916 547.396C-110.912 579.69 -288.371 707.364 -341.691 599.566" stroke="#1071BA" stroke-opacity="0.3" stroke-width="1.0073" stroke-miterlimit="10" stroke-linecap="round" stroke-linejoin="round"/>
<path d="M1905.77 473.627C1750.24 595.345 1491.44 620.341 1309.16 536.8C1241.14 505.617 1181.82 461.282 1106.57 441.401C999.128 413.023 887.148 452.005 816.02 519.864C756.324 577.205 712.179 632.81 608.272 625.818C532.586 620.727 469.295 589.071 404.615 555.871C339.53 522.461 267.393 484.443 185.504 481.806C102.72 479.157 24.1037 512.369 -48.0592 547.431C-114.016 579.585 -299.816 711.015 -347.481 598.459" stroke="#1071BA" stroke-opacity="0.3" stroke-width="1.0073" stroke-miterlimit="10" stroke-linecap="round" stroke-linejoin="round"/>
<path d="M1904.15 486.701C1739.93 613.064 1468.06 640.821 1279.65 550.469C1215.16 519.551 1159.21 476.35 1086.67 458.317C978.467 431.394 868.431 475.983 800.149 545.644C741.99 604.982 697.083 660.629 587.295 645.602C508.037 634.741 444.072 592.824 381.67 554.343C319.268 515.863 249.136 477.962 168.117 477.523C88.4268 477.086 14.7102 512.925 -53.6523 547.457C-117.043 579.486 -311.21 714.675 -353.223 597.343" stroke="#1071BA" stroke-opacity="0.3" stroke-width="1.0073" stroke-miterlimit="10" stroke-linecap="round" stroke-linejoin="round"/>
<path d="M1935.22 465.194C1840.26 537.374 1706.03 580.015 1576.69 581.086C1478.26 581.894 1380.54 564.605 1298.81 534.431C1279.17 527.18 1260.32 519.17 1241.81 511.287C1199.07 493.063 1158.5 474.605 1109.89 467.098C1095.38 464.863 1080.83 463.777 1066.25 463.878C976.187 464.582 885.779 506.839 822.795 563.041C806.446 577.549 790.813 591.578 774.853 604.205C729.852 639.845 681.705 664.067 601.246 652.23C546.02 643.982 497.543 621.755 451.791 596.067C431.185 584.515 411.141 572.248 391.253 560.237C327.492 521.715 256.998 483.284 176.586 478.904C154.395 477.753 132.637 479.248 111.27 482.522C76.0062 487.952 41.8334 498.397 8.23716 511.4C-10.538 518.652 -28.8885 527.024 -46.7875 535.801C-74.0122 549.154 -119.561 579.356 -166.944 603.314C-239.326 639.928 -319.118 664.421 -349.716 598.382" stroke="#1071BA" stroke-opacity="0.3" stroke-width="1.0212" stroke-miterlimit="10" stroke-linecap="round" stroke-linejoin="round"/>
<path d="M1966.27 443.674C1870.35 515.702 1731.11 560.914 1601.12 559.036C1500.41 557.581 1400.99 540.084 1317.92 518.344C1298.14 513.167 1279.19 507.645 1260.71 502.4C1218.39 490.378 1179.72 478.236 1133.05 475.835C1119.16 475.117 1105.18 475.317 1091.12 476.636C1003.68 484.845 912.812 528.052 845.387 580.406C827.869 593.998 810.784 606.853 793.581 618.355C745.481 650.517 694.801 671.55 615.144 658.831C559.337 649.922 509.779 627.62 462.883 601.973C441.766 590.426 421.161 578.168 400.757 566.108C335.665 527.561 264.815 488.417 184.948 480.252C163.026 478.017 141.471 478.29 120.28 480.07C85.113 483.032 50.8851 490.533 16.6531 501.382C-2.77396 507.539 -21.7155 515.39 -40.0515 524.139C-69.2821 538.087 -114.31 569.354 -160.162 594.25C-231.116 632.775 -310.367 660.934 -346.309 599.441" stroke="#1071BA" stroke-opacity="0.3" stroke-width="1.0351" stroke-miterlimit="10" stroke-linecap="round" stroke-linejoin="round"/>
<path d="M1997.34 422.234C1900.46 494.137 1756.2 541.88 1625.58 537.121C1522.58 533.365 1421.62 515.629 1337.06 502.383C1317.21 499.268 1298.17 496.248 1279.66 493.644C1237.99 487.773 1201 481.961 1156.26 484.666C1143.01 485.461 1129.58 486.949 1116.02 489.469C1031.17 505.224 939.728 549.28 868.024 597.881C849.311 610.567 830.85 622.243 812.355 632.63C761.233 661.338 707.957 679.068 629.085 665.571C572.69 655.923 522.059 633.623 474.014 607.987C452.361 596.442 431.248 584.201 410.297 572.052C343.871 533.443 272.676 493.694 193.343 481.629C171.693 478.345 150.337 477.359 129.345 477.643C94.2739 478.121 59.9366 482.65 25.1483 491.376C5.01697 496.427 -14.4402 503.752 -33.2364 512.498C-64.4475 527.043 -108.976 559.406 -153.328 585.217C-222.851 625.684 -301.565 657.482 -342.853 600.508" stroke="#1071BA" stroke-opacity="0.3" stroke-width="1.0489" stroke-miterlimit="10" stroke-linecap="round" stroke-linejoin="round"/>
<path d="M2028.44 400.762C1930.58 472.565 1781.34 522.781 1650.06 515.179C1544.77 509.083 1442.48 491.05 1356.21 486.375C1336.3 485.304 1317.29 484.738 1298.6 484.828C1257.78 484.998 1222.34 485.606 1179.43 493.463C1166.83 495.771 1153.94 498.565 1140.9 502.268C1058.61 525.647 966.561 570.467 890.605 615.331C870.697 627.092 850.863 637.626 831.073 646.881C776.983 672.146 721.055 686.543 642.972 672.283C586.012 661.893 534.284 639.598 485.091 613.972C462.928 602.443 441.251 590.188 419.784 577.983C352.023 539.31 280.46 498.974 201.685 483.005C180.307 478.671 159.149 476.407 138.333 475.217C103.329 473.193 68.8825 474.749 33.567 481.386C12.7294 485.312 -7.26642 492.132 -26.4977 500.871C-59.7183 515.982 -103.717 549.494 -146.568 576.22C-214.633 618.648 -292.86 654.093 -339.471 601.632" stroke="#1071BA" stroke-opacity="0.3" stroke-width="1.0628" stroke-miterlimit="10" stroke-linecap="round" stroke-linejoin="round"/>
<path d="M2059.51 379.301C1960.69 450.965 1806.45 503.622 1674.54 493.226C1566.98 484.751 1463.42 466.286 1375.39 470.355C1355.46 471.271 1336.48 473.14 1317.57 476.002C1277.74 482.017 1243.69 489.21 1202.66 502.236C1190.7 506.041 1178.34 510.18 1165.85 515.061C1086.12 546.141 993.469 591.633 913.286 632.756C892.156 643.596 871.003 652.999 849.889 661.088C792.885 682.958 734.274 693.952 656.955 678.951C599.43 667.799 546.603 645.509 496.265 619.928C473.567 608.399 451.355 596.163 429.367 583.866C360.248 545.15 288.341 504.223 210.146 484.309C189.041 478.926 168.054 475.386 147.438 472.699C112.525 468.152 77.9399 466.701 42.1028 471.301C20.555 474.066 0.0223317 480.399 -19.6168 489.148C-54.847 504.824 -98.262 539.517 -139.642 567.108C-206.22 611.53 -283.967 650.57 -335.924 602.626" stroke="#1071BA" stroke-opacity="0.3" stroke-width="1.0767" stroke-miterlimit="10" stroke-linecap="round" stroke-linejoin="round"/>
<path d="M2090.59 357.829C1990.8 429.372 1831.58 484.433 1699 471.265C1589.13 460.359 1484.37 441.364 1394.52 454.35C1374.6 457.232 1355.6 461.469 1336.51 467.192C1297.64 478.84 1265.01 492.781 1225.86 511.049C1214.54 516.333 1202.74 521.851 1190.76 527.88C1113.63 566.732 1020.3 612.814 935.92 650.228C913.569 660.145 891.097 668.436 868.66 675.358C808.747 693.868 747.446 701.403 670.893 685.677C612.825 673.744 558.879 651.496 507.393 625.924C484.183 614.394 461.437 602.176 438.905 589.808C368.451 551.027 296.154 509.551 218.536 485.674C197.68 479.26 176.912 474.403 156.474 470.257C121.627 463.189 86.8988 458.694 50.5672 461.272C28.2821 462.861 7.21451 468.725 -12.8325 477.483C-50.0723 493.724 -92.9287 529.6 -132.837 558.075C-197.926 604.511 -275.216 647.149 -332.497 603.704" stroke="#1071BA" stroke-opacity="0.3" stroke-width="1.0906" stroke-miterlimit="10" stroke-linecap="round" stroke-linejoin="round"/>
<path d="M2121.68 336.331C2020.94 407.771 1856.73 465.164 1723.5 449.294C1611.39 435.95 1505.27 416.258 1413.7 438.319C1393.72 443.137 1374.7 449.709 1355.48 458.36C1317.37 475.536 1286.3 496.304 1249.09 519.83C1238.39 526.596 1227.16 533.473 1215.68 540.686C1141.22 587.342 1047.16 633.966 958.579 667.687C935.005 676.663 911.242 683.857 887.455 689.614C824.664 704.814 760.667 708.834 684.855 692.387C626.219 679.674 571.205 657.465 518.544 631.905C494.8 620.393 471.516 608.158 448.465 595.716C376.676 556.871 303.991 514.863 226.951 487.02C206.369 479.574 185.793 473.402 165.533 467.797C130.799 458.165 95.9032 450.627 59.0321 451.243C36.0331 451.634 14.4323 457.046 -6.04785 465.815C-45.3244 482.607 -87.5445 519.677 -126.008 549.021C-189.555 597.483 -266.419 643.687 -329.07 604.784" stroke="#1071BA" stroke-opacity="0.3" stroke-width="1.1045" stroke-miterlimit="10" stroke-linecap="round" stroke-linejoin="round"/>
<path d="M2152.76 314.849C2051.06 386.167 1881.9 445.869 1747.96 427.339C1633.59 411.503 1525.99 391.074 1432.83 422.325C1412.8 429.044 1393.64 437.964 1374.4 449.569C1336.9 472.238 1307.5 499.877 1272.27 528.674C1262.19 536.923 1251.56 545.193 1240.57 553.54C1168.87 608.028 1073.96 655.151 981.192 685.195C956.393 693.23 931.318 699.364 906.204 703.918C840.537 715.842 773.838 716.274 698.77 699.141C639.59 685.628 583.456 663.462 529.649 637.93C505.393 626.416 481.575 614.2 457.98 601.687C384.858 562.796 311.732 520.244 235.343 488.409C215.01 479.932 194.678 472.439 174.594 465.357C139.975 453.179 104.905 442.543 67.5232 441.227C43.8063 440.384 21.6763 445.381 0.76296 454.162C-40.5504 471.504 -82.1302 509.805 -119.175 540.001C-181.152 590.523 -257.642 640.283 -325.616 605.881" stroke="#1071BA" stroke-opacity="0.3" stroke-width="1.1184" stroke-miterlimit="10" stroke-linecap="round" stroke-linejoin="round"/>
<path d="M2183.86 293.36C2081.2 364.556 1907.1 426.549 1772.44 405.359C1655.84 387.009 1546.57 365.807 1452.01 406.287C1431.88 414.912 1412.55 426.165 1393.4 440.75C1356.32 468.933 1328.75 503.43 1295.53 537.48C1286.06 547.194 1276.04 556.857 1265.52 566.356C1196.64 628.673 1100.82 676.267 1003.85 702.669C977.831 709.762 951.443 714.837 925.001 718.187C856.438 726.872 787.056 723.677 712.735 705.876C653.036 691.56 595.759 669.458 540.803 643.935C516.011 632.423 491.656 620.207 467.543 607.62C393.06 568.667 319.547 525.602 243.758 489.761C223.675 480.272 203.583 471.421 183.654 462.9C149.147 448.156 113.954 434.416 76.0111 431.175C51.6015 429.094 28.8916 433.68 7.57029 442.47C-35.7566 460.343 -76.6942 499.891 -112.349 530.926C-172.729 583.507 -248.844 636.822 -322.166 606.944" stroke="#1071BA" stroke-opacity="0.3" stroke-width="1.1323" stroke-miterlimit="10" stroke-linecap="round" stroke-linejoin="round"/>
<path d="M2214.93 271.851C2111.32 342.924 1932.37 406.997 1796.92 383.373C1678.19 362.314 1567 340.514 1471.17 390.265C1450.9 400.783 1431.39 414.426 1412.35 431.936C1375.6 465.698 1349.78 506.953 1318.74 546.313C1309.83 557.498 1300.49 568.547 1290.43 579.218C1224.42 649.379 1127.64 697.321 1026.49 720.187C999.216 726.288 971.549 730.371 943.802 732.495C872.294 737.965 800.321 731.04 726.702 712.631C666.501 697.436 608.062 675.455 551.959 649.96C526.659 638.464 501.742 626.253 477.11 613.591C401.291 574.575 327.249 531.085 252.178 491.169C232.321 480.67 212.518 470.438 192.72 460.497C158.395 443.126 123.006 426.324 84.5066 421.193C59.4277 417.854 36.1107 422.014 14.3853 430.849C-31.0113 449.203 -71.2506 490.048 -105.487 521.936C-164.218 576.606 -240.04 633.433 -318.683 608.078" stroke="#1071BA" stroke-opacity="0.3" stroke-width="1.1462" stroke-miterlimit="10" stroke-linecap="round" stroke-linejoin="round"/>
<path d="M2246.01 250.356C2141.41 321.308 1957.5 387.801 1821.38 361.382C1674.9 332.967 1540.01 305.722 1431.26 423.1C1384.39 473.708 1358.52 538.647 1315.31 592.047C1235.18 691.08 1099.1 742.581 962.544 746.752C825.99 750.923 688.948 711.956 563.082 655.926C437.19 599.9 320.426 526.995 201.774 457.994C167.565 438.092 132.096 418.107 92.9654 411.11C12.1504 396.646 -50.4184 464.823 -98.6901 512.829C-155.746 569.585 -231.273 629.941 -315.263 609.114" stroke="#1071BA" stroke-opacity="0.3" stroke-width="1.1601" stroke-miterlimit="10" stroke-linecap="round" stroke-linejoin="round"/>
</g>
</svg>
