<svg width="14" height="12" viewBox="0 0 14 12" fill="none" xmlns="http://www.w3.org/2000/svg">
<path d="M13.7525 5.40855L8.70265 0.42515C8.37707 0.102884 7.85051 0.107064 7.52824 0.43347C7.20597 0.759876 7.2093 1.28562 7.53656 1.60788L11.1453 5.16933H1.47508C1.01578 5.16933 0.644531 5.54058 0.644531 5.99988C0.644531 6.45917 1.01578 6.83046 1.47508 6.83046H11.1453L7.53656 10.3919C7.20933 10.7142 7.20683 11.2399 7.52824 11.5663C7.69101 11.7308 7.90531 11.8138 8.11961 11.8138C8.33058 11.8138 8.54152 11.7341 8.70265 11.5746L13.7525 6.5912C13.9103 6.43507 14 6.22242 14 5.99984C14 5.77734 13.9111 5.56554 13.7525 5.40855Z" fill="#1071BA" stroke="white" stroke-width="0.1"/>
</svg>
