<svg width="49" height="57" viewBox="0 0 49 57" fill="none" xmlns="http://www.w3.org/2000/svg">
    <path d="M23.0927 25.3076L23.0617 25.3389H23.1104C23.106 25.3299 23.0972 25.3188 23.0927 25.3076ZM27.9287 20.0267C27.4108 20.0267 26.9925 20.4504 26.9925 20.9723C26.9925 21.0927 27.0146 21.2064 27.0544 21.3112L23.0905 25.3076L22.6257 25.776L22.006 26.4004C22.1277 26.5721 22.2539 26.7416 22.3889 26.9067L23.0042 26.2867L27.4639 21.7907C27.6011 21.871 27.7605 21.9156 27.9287 21.9156C28.4466 21.9156 28.8671 21.4919 28.8671 20.9723C28.8671 20.4526 28.4466 20.0267 27.9287 20.0267ZM27.9287 21.4607C27.8866 21.4607 27.8446 21.454 27.8047 21.4428C27.5989 21.3893 27.4462 21.1997 27.4462 20.9723C27.4462 20.95 27.4484 20.9321 27.4506 20.9098C27.4816 20.6734 27.6852 20.4861 27.9287 20.4861C28.1965 20.4861 28.4112 20.7046 28.4112 20.9723C28.4112 21.2421 28.1965 21.4607 27.9287 21.4607ZM21.331 25.3389C21.342 25.3589 21.3509 25.379 21.3642 25.3968L21.4239 25.3389H21.331ZM35.5578 18.6975C35.0487 18.6975 34.6171 19.0343 34.4688 19.4981H32.2666C32.2689 19.4201 32.2689 19.3398 32.2689 19.2617C32.2689 19.041 32.2644 18.8559 32.2556 18.6774L32.2423 18.4433L32.0409 18.3228C30.2083 17.2568 28.1146 16.6971 25.9921 16.6971C23.8674 16.6971 21.7758 17.2591 19.9433 18.3228L19.7396 18.4433L19.7264 18.6774C19.7175 18.8559 19.7109 19.0432 19.7109 19.2617C19.7109 19.3398 19.7109 19.4201 19.7153 19.4981H17.5131C17.3648 19.0343 16.9355 18.6975 16.4242 18.6975C15.7934 18.6975 15.2799 19.2127 15.2799 19.8483C15.2799 20.4839 15.7934 21.0012 16.4242 21.0012C16.9332 21.0012 17.3648 20.6645 17.5131 20.2006H19.7507C19.795 20.7738 19.8791 21.3402 20.003 21.8978H17.9292V22.6025H20.1801C20.3793 23.305 20.6404 23.9852 20.9592 24.6386H19.0558C18.9075 24.1725 18.4781 23.838 17.9668 23.838C17.3383 23.838 16.8248 24.3554 16.8248 24.991C16.8248 25.6243 17.3383 26.1417 17.9668 26.1417C18.4759 26.1417 18.9075 25.805 19.0558 25.3411H21.4195L21.9972 24.7657L22.1255 24.6386L24.777 22.0003C24.8965 22.0583 25.0315 22.0896 25.1732 22.0896C25.6867 22.0896 26.1094 21.6658 26.1094 21.1462C26.1094 20.6244 25.6889 20.2006 25.1732 20.2006C24.6553 20.2006 24.2348 20.6244 24.2348 21.1462C24.2348 21.2934 24.268 21.4339 24.3299 21.5588L21.6939 24.177C21.4505 23.6685 21.2447 23.1422 21.0809 22.6025C21.0078 22.3706 20.9437 22.1364 20.8883 21.8978C20.7555 21.3447 20.6626 20.776 20.6161 20.2006C20.5984 19.9665 20.5829 19.7345 20.5807 19.4981C20.5763 19.4201 20.5763 19.3398 20.5763 19.2617C20.5763 19.1547 20.5785 19.0566 20.5807 18.9629C22.2296 18.0485 24.0953 17.5691 25.9899 17.5691C27.8822 17.5691 29.7458 18.0508 31.3991 18.9629C31.4035 19.0566 31.4035 19.1547 31.4035 19.2617C31.4035 19.3398 31.4035 19.4201 31.3991 19.4981C31.3968 19.7345 31.3836 19.9665 31.3636 20.2006C31.3172 20.776 31.2264 21.3425 31.0936 21.8978C31.0383 22.1342 30.9741 22.3706 30.9033 22.6025C30.6864 23.3094 30.4031 23.9896 30.0534 24.6386C29.9272 24.8772 29.79 25.1136 29.6439 25.3411C29.0419 26.3001 28.2939 27.1743 27.4218 27.9191C27.1872 28.1221 26.9438 28.3139 26.6915 28.4945C26.4657 28.6595 26.2333 28.8179 25.9921 28.9628C25.7508 28.8134 25.5184 28.6595 25.2905 28.4967C25.0382 28.3139 24.7969 28.1221 24.5601 27.9214C24.4406 27.8188 24.3211 27.7117 24.2038 27.6047L26.4834 25.3166C26.5985 25.3701 26.7247 25.3991 26.8597 25.3991C27.3776 25.3991 27.7981 24.9754 27.7981 24.4535C27.7981 23.9316 27.3776 23.5079 26.8597 23.5079C26.3462 23.5079 25.9235 23.9316 25.9235 24.4535C25.9235 24.6074 25.9611 24.7546 26.0253 24.8839L23.7501 27.1564L23.1348 27.7675C23.1835 27.8188 23.2344 27.8701 23.2853 27.9214H21.7803C21.6696 27.6069 21.3708 27.3794 21.0189 27.3794C20.5718 27.3794 20.2111 27.7452 20.2111 28.1934C20.2111 28.6439 20.574 29.0074 21.0189 29.0074C21.3088 29.0074 21.5612 28.8536 21.705 28.6216H24.0444C24.58 29.0766 25.1555 29.4869 25.773 29.846L25.9921 29.9731L26.209 29.846C26.8243 29.4869 27.3997 29.0766 27.9353 28.6216H30.2747C30.4186 28.8536 30.6731 29.0074 30.9608 29.0074C31.4079 29.0074 31.7687 28.6417 31.7687 28.1934C31.7687 27.743 31.4057 27.3794 30.9608 27.3794C30.6089 27.3794 30.3101 27.6069 30.1995 27.9214H28.6945C29.4602 27.1497 30.1176 26.2822 30.6532 25.3433H32.924C33.0723 25.8072 33.5016 26.1439 34.0129 26.1439C34.6437 26.1439 35.1549 25.6266 35.1549 24.9932C35.1549 24.3576 34.6437 23.8402 34.0129 23.8402C33.5039 23.8402 33.0723 24.177 32.924 24.6408H31.0228C31.3415 23.9896 31.6005 23.3072 31.8019 22.6047H34.0505V21.9H31.9789C32.1007 21.3447 32.1848 20.7782 32.229 20.2029H34.4666C34.6149 20.6667 35.0443 21.0035 35.5555 21.0035C36.1863 21.0035 36.6998 20.4861 36.6998 19.8505C36.702 19.2127 36.1885 18.6975 35.5578 18.6975ZM16.4264 20.4326C16.1055 20.4326 15.8465 20.1716 15.8465 19.8505C15.8465 19.5294 16.1055 19.2662 16.4264 19.2662C16.7473 19.2662 17.0063 19.5294 17.0063 19.8505C17.0063 20.1716 16.7451 20.4326 16.4264 20.4326ZM17.969 25.5708C17.6481 25.5708 17.3892 25.3099 17.3892 24.9887C17.3892 24.6654 17.6503 24.4044 17.969 24.4044C18.29 24.4044 18.5489 24.6654 18.5489 24.9887C18.5489 25.3099 18.29 25.5708 17.969 25.5708ZM25.1754 20.6578C25.4388 20.6578 25.6579 20.8764 25.6579 21.144C25.6579 21.4116 25.4388 21.6301 25.1754 21.6301H25.1488C24.912 21.6168 24.7195 21.4317 24.6951 21.1975C24.6907 21.1797 24.6907 21.1618 24.6907 21.144C24.6907 20.8764 24.9098 20.6578 25.1754 20.6578ZM26.8641 23.9629C27.1319 23.9629 27.3488 24.1814 27.3488 24.449C27.3488 24.7167 27.1319 24.9352 26.8641 24.9352H26.842C26.6074 24.9241 26.4215 24.7501 26.3883 24.5204C26.3838 24.4959 26.3838 24.4713 26.3838 24.449C26.3838 24.1814 26.5985 23.9629 26.8641 23.9629ZM21.0211 28.6016C20.7954 28.6016 20.6095 28.4165 20.6095 28.189C20.6095 27.9615 20.7932 27.7742 21.0211 27.7742C21.2469 27.7742 21.4328 27.9593 21.4328 28.189C21.4306 28.4187 21.2469 28.6016 21.0211 28.6016ZM30.963 27.7764C31.1888 27.7764 31.3747 27.9615 31.3747 28.1912C31.3747 28.4187 31.191 28.6038 30.963 28.6038C30.7373 28.6038 30.5514 28.4187 30.5514 28.1912C30.5514 27.9615 30.7373 27.7764 30.963 27.7764ZM34.0151 24.4022C34.336 24.4022 34.595 24.6631 34.595 24.9865C34.595 25.3099 34.3338 25.5686 34.0151 25.5686C33.6942 25.5686 33.4352 25.3076 33.4352 24.9865C33.433 24.6631 33.6942 24.4022 34.0151 24.4022ZM35.5578 20.4326C35.2368 20.4326 34.9779 20.1716 34.9779 19.8505C34.9779 19.5294 35.239 19.2662 35.5578 19.2662C35.8787 19.2662 36.1376 19.5294 36.1376 19.8505C36.1376 20.1716 35.8787 20.4326 35.5578 20.4326ZM15.4703 1.18422C15.5787 0.430438 16.2715 -0.0936451 17.0218 0.0156317C17.7699 0.124909 18.29 0.822942 18.1815 1.57896C18.0731 2.33275 17.3803 2.85683 16.63 2.74755C15.882 2.63828 15.3618 1.93801 15.4703 1.18422ZM18.6906 7.15877C18.6906 6.10391 19.5382 5.24977 20.5851 5.24977C21.632 5.24977 22.4797 6.10391 22.4797 7.15877C22.4797 8.21362 21.632 9.06777 20.5851 9.06777C19.5382 9.07 18.6906 8.21362 18.6906 7.15877ZM28.8162 44.5047L29.7391 44.3441L29.6307 43.713C29.9051 43.6282 30.1685 43.51 30.4142 43.3584L30.8148 43.8401L31.5318 43.2335L31.1357 42.7585C31.3105 42.5645 31.4632 42.3481 31.5916 42.1117L32.1693 42.3348L32.5057 41.4561L31.9258 41.2308C31.9856 40.9677 32.0143 40.7045 32.0121 40.4436L32.634 40.3566L32.5057 39.4222L31.8705 39.5114C31.7886 39.2371 31.6735 38.9739 31.5274 38.7286L32.0409 38.3227L31.4632 37.5801L30.9365 37.9971C30.7373 37.8143 30.516 37.6537 30.2725 37.5177L30.5226 36.8642L29.6506 36.5252L29.3983 37.1854C28.8494 37.0605 28.2939 37.0783 27.776 37.221L27.4838 36.4048L26.5941 36.7282L26.9062 37.5979C26.4281 37.8923 26.0186 38.3094 25.7331 38.8245L25.0315 38.5524L24.6951 39.4333L25.3923 39.7032C25.3347 39.944 25.306 40.1871 25.3038 40.4302L24.569 40.5328L24.6995 41.4672L25.4233 41.3646C25.4941 41.6278 25.5937 41.8843 25.7265 42.1207L25.1643 42.5645L25.742 43.3071L26.2909 42.8722C26.5011 43.0841 26.7446 43.2692 27.0146 43.4208L26.7711 44.0564L27.6454 44.3954L27.8866 43.7643C28.1611 43.8312 28.4399 43.8624 28.7122 43.8579L28.8162 44.5047ZM27.6919 42.9971C26.313 42.4619 25.6269 40.903 26.1581 39.5136C26.3595 38.9851 26.707 38.5569 27.1385 38.2603C27.4019 38.0797 27.6941 37.9458 28.0039 37.8678C28.5218 37.7362 29.0818 37.7585 29.6152 37.9659C30.952 38.4833 31.6337 39.9686 31.191 41.3245L31.0958 41.5721C30.9409 41.9244 30.7218 42.2255 30.4562 42.4708L30.2902 42.6113C29.5775 43.1666 28.5993 43.3495 27.6919 42.9971ZM9.80658 21.1841C10.4528 16.4874 13.682 13.6953 13.8192 13.5793C14.3216 13.1534 15.0719 13.2181 15.4968 13.7221C15.9196 14.2283 15.8576 14.9821 15.3574 15.4081C15.3242 15.437 12.6794 17.7586 12.1637 21.5119C12.0774 22.1364 11.5285 22.5824 10.9132 22.5445C10.8822 22.5423 10.8534 22.54 10.8225 22.5356C10.1718 22.4441 9.71805 21.8398 9.80658 21.1841ZM8.23296 19.3822C8.12451 20.136 7.43176 20.66 6.68147 20.5508C5.93339 20.4415 5.41327 19.7434 5.52172 18.9874C5.63017 18.2336 6.32292 17.7096 7.07321 17.8188C7.82129 17.9259 8.33919 18.6261 8.23296 19.3822ZM13.0092 7.65832C13.5359 7.26136 14.2818 7.37063 14.6757 7.89918C15.0697 8.42995 14.9612 9.17928 14.4367 9.57624C14.388 9.61415 10.9398 12.2569 8.96997 16.0347C8.74422 16.4674 8.29493 16.7015 7.84121 16.6748C7.67964 16.6636 7.51586 16.6213 7.36315 16.5387C6.78106 16.231 6.55753 15.5062 6.86296 14.9197C9.09391 10.6422 12.852 7.77652 13.0092 7.65832ZM22.4797 1.24667C22.4797 0.63338 22.9732 0.136059 23.5819 0.136059C24.1905 0.136059 24.684 0.63338 24.684 1.24667C24.684 1.85996 24.1905 2.35728 23.5819 2.35728C22.9732 2.35505 22.4797 1.85996 22.4797 1.24667ZM28.2341 3.25602C28.2341 2.7877 28.6104 2.40857 29.0751 2.40857C29.5399 2.40857 29.9162 2.7877 29.9162 3.25602C29.9162 3.72435 29.5399 4.10348 29.0751 4.10348C28.6104 4.10125 28.2341 3.72212 28.2341 3.25602ZM33.6234 13.2939C33.6234 12.752 34.0594 12.3126 34.5972 12.3126C35.135 12.3126 35.571 12.752 35.571 13.2939C35.571 13.8358 35.135 14.2751 34.5972 14.2751C34.0594 14.2751 33.6234 13.8358 33.6234 13.2939ZM30.1884 9.78587C30.1884 8.96741 30.848 8.30283 31.6602 8.30283C32.4725 8.30283 33.132 8.96741 33.132 9.78587C33.132 10.6043 32.4725 11.2689 31.6602 11.2689C30.848 11.2689 30.1884 10.6043 30.1884 9.78587ZM33.4087 33.887L33.5193 34.6832L34.1368 34.5962C34.1988 34.8214 34.2829 35.04 34.3936 35.2407L33.9155 35.6198L34.4091 36.2532L34.8783 35.883C35.0576 36.0636 35.2656 36.2219 35.4958 36.3513L35.2877 36.8932L36.0336 37.1809L36.2394 36.6434C36.474 36.7014 36.7109 36.7282 36.9432 36.7237L37.0362 37.2723L37.8241 37.1363L37.7312 36.5988C37.9658 36.5275 38.1893 36.4249 38.3996 36.2955L38.7426 36.7059L39.3535 36.1885L39.0148 35.7826C39.1631 35.6176 39.2937 35.4325 39.4044 35.2318L39.8957 35.4236L40.1812 34.6742L39.6855 34.4824C39.7364 34.2594 39.7607 34.0342 39.7585 33.8112L40.2875 33.7376L40.179 32.9414L39.639 33.0172C39.5682 32.7831 39.4708 32.5578 39.3446 32.3504L39.7828 32.0047L39.2893 31.3714L38.84 31.726C38.6718 31.5699 38.4815 31.4316 38.2734 31.3179L38.4859 30.7603L37.7422 30.4704L37.5275 31.0324C37.0605 30.9254 36.5869 30.941 36.1443 31.0636L35.8942 30.3678L35.135 30.6444L35.4006 31.387C34.9934 31.639 34.6437 31.9936 34.4002 32.4329L33.8026 32.201L33.5149 32.9526L34.1103 33.1823C34.0616 33.3874 34.0372 33.5948 34.035 33.8022L33.4087 33.887ZM34.7698 33.015C34.9425 32.5645 35.239 32.201 35.6064 31.9468C35.83 31.7929 36.0801 31.6769 36.3435 31.6122C36.7839 31.5007 37.262 31.5208 37.7179 31.697C38.8577 32.1386 39.4398 33.4053 39.0613 34.5605L38.9817 34.7701C38.8511 35.069 38.6629 35.3277 38.4372 35.5351L38.2955 35.6533C37.6869 36.1283 36.8525 36.2844 36.0801 35.9833C34.9026 35.5306 34.3161 34.1992 34.7698 33.015ZM25.1997 7.58027C25.1997 6.64807 25.95 5.89205 26.8752 5.89205C27.8003 5.89205 28.5506 6.64807 28.5506 7.58027C28.5506 8.51246 27.8003 9.26848 26.8752 9.26848C25.95 9.26848 25.1997 8.51246 25.1997 7.58027ZM2.34128 13.3229C4.99718 7.08518 11.1722 3.26271 11.4333 3.10214C11.9933 2.7587 12.7259 2.93934 13.0667 3.5058C13.4075 4.07226 13.2283 4.8082 12.6661 5.15164C12.5643 5.21409 6.86738 8.77116 4.52797 14.2662C4.32436 14.7457 3.84851 15.0222 3.36159 14.991C3.2288 14.9821 3.096 14.9509 2.96763 14.8951C2.3612 14.6364 2.08233 13.9317 2.34128 13.3229ZM8.7907 34.9485C9.37057 34.9485 9.83978 35.4213 9.83978 36.0056C9.83978 36.5899 9.37057 37.0627 8.7907 37.0627C8.21082 37.0627 7.74162 36.5899 7.74162 36.0056C7.74162 35.4236 8.21082 34.9485 8.7907 34.9485ZM21.5921 33.3785C21.8422 33.635 21.84 34.0498 21.5833 34.304C21.4571 34.4289 21.2934 34.4914 21.1296 34.4914C20.9614 34.4914 20.7932 34.4267 20.667 34.2951L14.7731 28.247C14.523 27.9905 14.5252 27.5757 14.782 27.3215C15.0387 27.0672 15.4482 27.0739 15.7005 27.3304L21.5921 33.3785ZM21.57 39.5159L21.4948 38.9739L21.1274 39.0252C21.0809 38.8647 21.0123 38.713 20.9282 38.5725L21.2247 38.3361L20.8905 37.9057L20.5851 38.1466C20.47 38.0395 20.3417 37.9481 20.2 37.87L20.3439 37.4909L19.837 37.2946L19.691 37.676C19.3722 37.6024 19.0513 37.6136 18.7503 37.6961L18.5799 37.2233L18.0642 37.4106L18.2457 37.9146C17.969 38.0863 17.7322 38.3272 17.5662 38.626L17.159 38.4677L16.9642 38.9784L17.3693 39.1345C17.3361 39.275 17.3184 39.4155 17.3184 39.556L16.8912 39.614L16.9664 40.1559L17.3847 40.0979C17.4268 40.2518 17.4843 40.399 17.5596 40.5373L17.2342 40.796L17.5684 41.2264L17.8872 40.9744C18.0089 41.097 18.1505 41.2041 18.3077 41.2933L18.166 41.6613L18.6729 41.8575L18.8123 41.4918C18.9716 41.5297 19.1332 41.5497 19.2904 41.5453L19.3545 41.9177L19.8902 41.8263L19.8282 41.4605C19.9875 41.4115 20.1402 41.3423 20.2819 41.2554L20.5143 41.5341L20.9304 41.1818L20.7002 40.9052C20.802 40.7937 20.8905 40.6666 20.9658 40.5306L21.3 40.6599L21.4948 40.1492L21.1583 40.0176C21.1938 39.866 21.2092 39.7121 21.207 39.5605L21.57 39.5159ZM20.7356 40.0756L20.6803 40.2184C20.5917 40.4213 20.4634 40.5975 20.3107 40.738L20.2155 40.8183C19.8016 41.1416 19.235 41.2464 18.7083 41.0435C17.9093 40.7335 17.5109 39.8303 17.8185 39.0252C17.9359 38.7197 18.1373 38.4722 18.3874 38.2982C18.5401 38.1934 18.7105 38.1153 18.8875 38.0707C19.1863 37.9949 19.5117 38.0083 19.8215 38.1287C20.5962 38.4298 20.9923 39.2906 20.7356 40.0756ZM35.7149 33.383C35.9672 32.7251 36.6998 32.3973 37.3527 32.6515C38.0056 32.9057 38.331 33.6439 38.0786 34.3018C37.8263 34.9597 37.0937 35.2875 36.4408 35.0333C35.7901 34.779 35.4648 34.0409 35.7149 33.383ZM28.1212 41.8776C27.3554 41.581 26.9748 40.7134 27.2691 39.9418C27.5635 39.1702 28.4244 38.7866 29.1902 39.0832C29.956 39.3798 30.3367 40.2473 30.0423 41.019C29.7458 41.7906 28.887 42.1742 28.1212 41.8776ZM45.3647 41.1885C45.3647 41.1885 45.4001 41.3178 44.6963 41.3557C44.4617 41.3691 44.2735 41.5631 44.2735 41.8018C44.2735 41.8887 44.2979 41.9735 44.3466 42.0448C44.5524 42.3526 45.0637 43.2893 44.0655 43.7442C42.8615 44.2928 43.5365 44.7634 43.552 45.2161C43.5697 45.6688 44.9552 49.8592 39.4088 50.6153C39.4088 50.6153 36.4209 50.8294 33.7274 49.9284C32.8421 49.634 31.855 50.0131 31.3968 50.8316C30.8568 51.7972 30.4562 53.3182 31.0383 55.5327C31.16 55.9988 31.315 56.4404 31.4964 56.8619C31.4964 56.8619 26.3418 53.7107 29.3894 48.0461C29.3894 48.0461 36.4231 50.3432 39.3778 48.2402C39.3778 48.2402 41.9142 46.233 40.438 42.9659C40.438 42.9659 43.0076 42.2366 41.4339 40.0199L42.514 39.8905C42.514 39.8905 42.7265 38.3205 42.12 37.2634C41.8965 36.8754 42.0359 36.3736 42.4498 36.2063C42.5738 36.155 42.722 36.1149 42.8991 36.0926C43.8619 35.9632 46.0663 35.0132 45.1677 33.7197C44.2691 32.4262 42.877 30.7425 42.0625 29.5784C41.248 28.4142 41.2281 26.7751 41.8921 24.8527C42.556 22.9325 43.3263 19.5338 39.3446 15.4259C39.3446 15.4259 39.6833 15.1828 40.6615 15.3122C40.6615 15.3122 41.8279 12.6003 33.1165 5.88982C33.2715 5.9701 43.2643 11.1976 43.4347 16.8064L42.2351 16.677C42.2351 16.677 45.5439 20.2162 45.1898 23.0641C44.8357 25.912 43.9703 27.7563 44.3222 29.7635C44.6763 31.7706 52.3519 36.5275 44.9331 37.7897C44.9309 37.7897 44.4329 38.064 45.3647 41.1885ZM20.0672 39.8994C19.8968 40.3455 19.3988 40.5685 18.9539 40.3968C18.5113 40.225 18.29 39.7233 18.4604 39.275C18.6308 38.8267 19.1288 38.606 19.5737 38.7777C20.0185 38.9494 20.2398 39.4534 20.0672 39.8994ZM16.5681 34.8906C16.8226 35.1448 16.8226 35.5596 16.5703 35.8161C16.4441 35.9432 16.2781 36.0079 16.1099 36.0079C15.9439 36.0079 15.7779 35.9454 15.6518 35.8161L13.1552 33.3094C12.9007 33.0551 12.9007 32.6403 13.153 32.3839C13.4053 32.1274 13.817 32.1274 14.0715 32.3816L16.5681 34.8906ZM3.14912 20.4705C3.04067 21.2243 2.34792 21.7483 1.59763 21.6391C0.849552 21.5298 0.329437 20.8318 0.437886 20.0757C0.546335 19.3219 1.23908 18.7979 1.98938 18.9071C2.73745 19.0164 3.25757 19.7167 3.14912 20.4705ZM4.87988 27.1676C3.78875 27.1676 2.90566 26.2778 2.90566 25.1783C2.90566 24.0788 3.78875 23.189 4.87988 23.189C5.97101 23.189 6.8541 24.0788 6.8541 25.1783C6.8541 26.2755 5.97101 27.1676 4.87988 27.1676ZM10.9752 38.9851C13.9055 46.5943 12.6019 52.0269 10.7959 55.4078H6.83639C11.6701 49.2906 10.9752 38.9851 10.9752 38.9851ZM6.72795 32.5556C5.9356 32.5556 5.29376 31.9089 5.29376 31.1105C5.29376 30.3121 5.9356 29.6653 6.72795 29.6653C7.52029 29.6653 8.16213 30.3121 8.16213 31.1105C8.16213 31.9066 7.52029 32.5556 6.72795 32.5556ZM13.0424 29.9887C12.7923 29.7322 12.7945 29.3174 13.0512 29.0632C13.3079 28.809 13.7174 28.8157 13.9697 29.0721L19.8636 35.1203C20.1137 35.3767 20.1115 35.7915 19.8547 36.0458C19.7286 36.1707 19.5648 36.2331 19.401 36.2331C19.2328 36.2331 19.0646 36.1684 18.9385 36.0368L13.0424 29.9887ZM12.7347 25.3745C12.6263 26.1283 11.9335 26.6524 11.1832 26.5431C10.4351 26.4339 9.91503 25.7358 10.0235 24.9798C10.1319 24.226 10.8247 23.7019 11.575 23.8112C12.323 23.9205 12.8432 24.6208 12.7347 25.3745Z"
          fill="white"/>
</svg>
