<svg width="134" height="40" viewBox="0 0 134 40" fill="none" xmlns="http://www.w3.org/2000/svg">
    <path d="M25.9096 28.779H20.3301L20.3855 20.7826H5.0483C3.03093 20.7826 1.6002 20.3688 0.759363 19.538C0.250948 19.0323 0 18.4675 0 17.8435C0 17.3739 0.149917 16.9207 0.449752 16.4872L11.3839 0.579824H17.4132L6.36496 16.7138H20.3855V0.579824H25.9096V28.779ZM58.6567 4.62235H43.9648C42.3581 4.62235 41.2077 4.8391 40.5168 5.27258C39.6759 5.85712 39.2555 6.66825 39.2555 7.70269V21.065C39.2555 22.4016 39.6303 23.3342 40.3766 23.863C41.1229 24.3917 42.4135 24.6544 44.2451 24.6544H58.6013V28.779H42.1724C39.4608 28.779 37.3685 28.2175 35.8921 27.0976C34.4158 25.9778 33.676 24.4179 33.676 22.4213V6.79632C33.676 4.46144 34.4614 2.79319 36.0323 1.79488C37.3783 0.927916 39.5749 0.494439 42.6221 0.494439H58.66V4.62235H58.6567ZM70.6045 28.779H65.025V0.441895H70.6045V28.779ZM100.549 4.64862H86.248C83.9113 4.64862 82.4545 5.08211 81.8743 5.94907C81.5387 6.47778 81.3692 7.67314 81.3692 9.53841C81.3692 10.517 81.8092 11.2822 82.6859 11.8273C83.4159 12.2608 84.6022 12.4775 86.248 12.4775H92.1632C94.6857 12.4775 96.7064 12.9866 98.2186 14.0046C99.7308 15.0226 100.49 16.4544 100.49 18.3V22.7628C100.49 24.7036 99.7145 26.1913 98.1632 27.2257C96.6119 28.2634 94.4902 28.779 91.7982 28.779H75.8451V24.6544H90.1459C92.5185 24.6544 93.9948 24.1848 94.5749 23.2423C94.8357 22.753 94.9693 21.4821 94.9693 19.4296C94.9693 17.5085 93.418 16.5463 90.3153 16.5463H84.4001C81.9526 16.5463 79.9417 16.0767 78.3708 15.1343C76.6501 14.0998 75.7897 12.6877 75.7897 10.898V6.49092C75.7897 4.51399 76.725 2.94098 78.5925 1.7719C79.8993 0.944343 81.7994 0.52728 84.2828 0.52728H100.546V4.64862H100.549ZM134 22.3655C134 26.6412 130.943 28.779 124.832 28.779H116.391C113.438 28.779 111.232 28.3094 109.775 27.3669C108.019 26.2373 107.139 24.5887 107.139 22.4213V6.99336C107.139 4.84566 108.035 3.1807 109.831 1.99191C111.252 1.0133 113.438 0.523993 116.391 0.523993H124.888C130.962 0.523993 134 2.68155 134 6.99336V22.3655ZM128.505 21.3475V8.18214C128.505 6.86528 128.121 5.94578 127.355 5.42691C126.589 4.90805 125.328 4.64862 123.571 4.64862H117.711C115.915 4.64862 114.635 4.90805 113.869 5.42691C113.103 5.94578 112.718 6.862 112.718 8.18214V21.2358C112.718 22.4049 113.139 23.2981 113.979 23.9188C114.67 24.4081 115.915 24.6544 117.708 24.6544H123.568C125.288 24.6544 126.54 24.4114 127.325 23.9188C128.111 23.4295 128.505 22.5724 128.505 21.3475Z"
          fill="white"/>
    <path d="M5.71641 38.1395C5.71641 38.5598 5.57627 38.8849 5.29599 39.1148C4.99289 39.3611 4.5627 39.4859 4.0054 39.4859H0V33.5978H4.0054C5.13629 33.5978 5.70337 34.0444 5.70337 34.9343V35.4171C5.70337 35.7061 5.65774 35.9228 5.56975 36.064C5.46872 36.2479 5.25362 36.4088 4.92771 36.5468C5.01245 36.5862 5.13955 36.642 5.30576 36.7175C5.51435 36.8522 5.64471 37.0755 5.69033 37.3874C5.70663 37.4728 5.71641 37.7224 5.71641 38.1395ZM4.55292 37.9851V37.591C4.55292 37.1805 4.25634 36.9737 3.65993 36.9737H1.16023V38.6321H3.65993C4.25634 38.6321 4.55292 38.4186 4.55292 37.9851ZM4.56596 35.5156V35.0756C4.56596 34.6552 4.24657 34.445 3.60779 34.445H1.17326V36.1231H3.65016C4.2596 36.1198 4.56596 35.9195 4.56596 35.5156Z"
          fill="white"/>
    <path d="M12.7333 38.0033C12.7333 38.2693 12.7072 38.4729 12.6518 38.6141C12.5768 38.8046 12.4367 38.9819 12.2249 39.1362C12.0163 39.2939 11.7914 39.3957 11.56 39.4416C11.4003 39.4679 11.1363 39.4843 10.7713 39.4843H8.95601C8.60404 39.4843 8.34657 39.4679 8.18036 39.4318C7.93267 39.3858 7.70779 39.2873 7.50899 39.1362C7.28737 38.9687 7.14071 38.7947 7.06576 38.6141C7.02013 38.4893 6.99731 38.2857 6.99731 38.0033V33.6028H8.15754V37.8456C8.15754 38.151 8.23576 38.3579 8.39546 38.4663C8.55515 38.5747 8.84521 38.6272 9.26563 38.6272H10.4617C10.8756 38.6272 11.1624 38.5747 11.3254 38.4729C11.4883 38.3678 11.5698 38.1675 11.5698 37.8686V33.6028H12.73V38.0033H12.7333Z"
          fill="white"/>
    <path d="M15.161 39.4847H14.0007V33.5835H15.161V39.4847Z" fill="white"/>
    <path d="M21.6109 39.4847H18.5213C17.8434 39.4847 17.3252 39.3796 16.9635 39.1694C16.6017 38.9592 16.4192 38.5947 16.4192 38.0726V33.5966H17.5794V37.869C17.5794 38.1711 17.6739 38.3813 17.8662 38.4995C18.0096 38.5881 18.3192 38.6341 18.7885 38.6341H21.6076V39.4847H21.6109Z"
          fill="white"/>
    <path d="M28.0866 38.1382C28.0866 38.5487 27.9367 38.8771 27.6401 39.1201C27.3435 39.3632 26.9166 39.4847 26.3658 39.4847H22.3115V33.5966H26.3397C27.5032 33.5966 28.0866 34.0366 28.0866 34.9134V38.1382ZM26.9427 37.8558V35.1499C26.9427 34.6803 26.6233 34.4438 25.9845 34.4438H23.475V38.6341H25.9845C26.6233 38.6308 26.9427 38.3714 26.9427 37.8558Z"
          fill="white"/>
    <path d="M30.5147 39.4847H29.3545V33.5835H30.5147V39.4847Z" fill="white"/>
    <path d="M37.5285 38.7789C37.5285 39.0022 37.4503 39.1861 37.2906 39.3306C37.1146 39.4948 36.88 39.5769 36.5834 39.5769C36.3064 39.5769 36.0913 39.5145 35.9414 39.3897C35.8762 39.3339 35.7589 39.1762 35.5894 38.9135L32.8876 34.7659V39.4948H31.7795V34.4605C31.7795 33.8891 32.0957 33.6001 32.7247 33.6001C33.0115 33.6001 33.2298 33.6625 33.3797 33.784C33.4612 33.8497 33.5818 34.0106 33.7415 34.2602L36.4204 38.4012V33.6526H37.5285V38.7789Z"
          fill="white"/>
    <path d="M44.4861 38.0591C44.4861 38.5156 44.3394 38.8571 44.0428 39.0903C43.7234 39.353 43.2932 39.4843 42.7522 39.4843H40.7316C40.1026 39.4843 39.6235 39.3727 39.2944 39.1494C39.0728 39.0016 38.9261 38.821 38.8511 38.6075C38.812 38.486 38.7925 38.2726 38.7925 37.9737V34.9919C38.7925 34.716 38.8251 34.5059 38.887 34.3614C38.975 34.1775 39.1445 34.0133 39.3889 33.8721C39.7018 33.6915 40.1483 33.6028 40.7316 33.6028H44.0656V34.45H40.9728C40.6078 34.45 40.3503 34.496 40.2069 34.5847C40.0407 34.6865 39.956 34.8671 39.956 35.1265V37.9376C39.956 38.2003 40.0472 38.3875 40.2297 38.5024C40.3731 38.5878 40.6143 38.6305 40.9467 38.6305H42.4524C43.039 38.6305 43.3324 38.4105 43.3324 37.9704V36.2299H44.4828V38.0591H44.4861Z"
          fill="white"/>
    <path d="M53.8431 34.4439H51.8583V39.4847H50.6981V34.4439H48.7263V33.5835H53.8463V34.4439H53.8431Z" fill="white"/>
    <path d="M60.2375 39.485H58.7904L55.9485 37.2256C55.8507 37.1501 55.8019 37.0286 55.8019 36.8545C55.8019 36.5261 56.0398 36.3619 56.5189 36.3619L58.2168 36.3488C58.7807 36.3488 59.0642 36.1518 59.0642 35.761V35.0845C59.0642 34.674 58.7448 34.4671 58.106 34.4671H55.7073V39.485H54.5471V33.61H58.4482C59.6345 33.61 60.2277 34.027 60.2277 34.8645V35.8825C60.2277 36.247 60.0745 36.5426 59.7649 36.7659C59.4585 36.9892 59.0511 37.1008 58.5493 37.1008H57.213L60.2375 39.485Z"
          fill="white"/>
    <path d="M67.0714 38.0033C67.0714 38.2693 67.0453 38.4729 66.9899 38.6141C66.915 38.8046 66.7748 38.9819 66.563 39.1362C66.3544 39.2939 66.1295 39.3957 65.8981 39.4416C65.7385 39.4679 65.4745 39.4843 65.1095 39.4843H63.2942C62.9422 39.4843 62.6847 39.4679 62.5185 39.4318C62.2708 39.3858 62.0459 39.2873 61.8471 39.1362C61.6255 38.9687 61.4789 38.7947 61.4039 38.6141C61.3583 38.4893 61.3354 38.2857 61.3354 38.0033V33.6028H62.4957V37.8456C62.4957 38.151 62.5739 38.3579 62.7336 38.4663C62.8933 38.5747 63.1833 38.6272 63.6038 38.6272H64.7998C65.2137 38.6272 65.5005 38.5747 65.6635 38.4729C65.8264 38.3678 65.9079 38.1675 65.9079 37.8686V33.6028H67.0681V38.0033H67.0714Z"
          fill="white"/>
    <path d="M73.3127 34.4602H70.334C69.8484 34.4602 69.5453 34.5489 69.4247 34.7295C69.353 34.8379 69.3204 35.0875 69.3204 35.4782C69.3204 35.6819 69.4116 35.8395 69.5941 35.9544C69.7473 36.0431 69.9918 36.0891 70.3372 36.0891H71.5691C72.0939 36.0891 72.5143 36.1942 72.8304 36.4076C73.1465 36.6178 73.303 36.9166 73.303 37.3008V38.2302C73.303 38.6341 73.14 38.9428 72.8174 39.1595C72.4947 39.3763 72.0515 39.4847 71.4909 39.4847H68.1699V38.6243H71.1487C71.6441 38.6243 71.9505 38.5257 72.071 38.3287C72.1264 38.2269 72.1525 37.9609 72.1525 37.534C72.1525 37.1334 71.8299 36.933 71.1846 36.933H69.9526C69.4442 36.933 69.0238 36.8345 68.6979 36.6375C68.3394 36.4207 68.1602 36.1285 68.1602 35.7541V34.8379C68.1602 34.4274 68.3557 34.099 68.7435 33.856C69.0173 33.6819 69.4116 33.5966 69.9298 33.5966H73.316V34.4602H73.3127Z"
          fill="white"/>
    <path d="M79.2441 34.4439H77.2593V39.4847H76.0959V34.4439H74.1241V33.5835H79.2441V34.4439Z" fill="white"/>
    <path d="M88.0309 34.4439H86.0461V39.4847H84.8826V34.4439H82.9109V33.5835H88.0309V34.4439Z" fill="white"/>
    <path d="M94.3241 38.1484C94.3241 39.0383 93.6886 39.4849 92.4143 39.4849H90.6577C90.0417 39.4849 89.5822 39.3864 89.2791 39.1894C88.9141 38.9529 88.7316 38.6114 88.7316 38.1582V34.9465C88.7316 34.4999 88.9173 34.1518 89.2921 33.9055C89.5887 33.7019 90.045 33.6001 90.6577 33.6001H92.4273C93.6919 33.6001 94.3241 34.05 94.3241 34.9465V38.1484ZM93.1802 37.9382V35.1961C93.1802 34.9235 93.0987 34.7298 92.9423 34.6214C92.7826 34.513 92.5186 34.4605 92.1536 34.4605H90.9347C90.5599 34.4605 90.2959 34.513 90.1362 34.6214C89.9765 34.7298 89.8983 34.9202 89.8983 35.1961V37.9152C89.8983 38.1582 89.9863 38.3454 90.1623 38.4735C90.3057 38.5753 90.5664 38.6278 90.938 38.6278H92.1568C92.5153 38.6278 92.7761 38.5753 92.939 38.4735C93.0987 38.3717 93.1802 38.1943 93.1802 37.9382Z"
          fill="white"/>
    <path d="M101.295 38.0591C101.295 38.5156 101.149 38.8571 100.852 39.0903C100.533 39.353 100.102 39.4843 99.5614 39.4843H97.5408C96.9118 39.4843 96.4327 39.3727 96.1036 39.1494C95.882 39.0016 95.7353 38.821 95.6603 38.6075C95.6212 38.486 95.6017 38.2726 95.6017 37.9737V34.9919C95.6017 34.716 95.6343 34.5059 95.6962 34.3614C95.7842 34.1775 95.9537 34.0133 96.1981 33.8721C96.511 33.6915 96.9575 33.6028 97.5408 33.6028H100.875V34.45H97.782C97.417 34.45 97.1628 34.496 97.0161 34.5847C96.8499 34.6865 96.7652 34.8671 96.7652 35.1265V37.9376C96.7652 38.2003 96.8564 38.3875 97.0389 38.5024C97.1823 38.5878 97.4235 38.6305 97.7559 38.6305H99.2616C99.8483 38.6305 100.142 38.4105 100.142 37.9704V36.2299H101.292V38.0591H101.295Z"
          fill="white"/>
    <path d="M107.52 36.9729H103.73V37.9679C103.73 38.408 104.069 38.628 104.747 38.628H107.748V39.4884H104.431C103.86 39.4884 103.414 39.3899 103.094 39.1895C102.742 38.9662 102.57 38.651 102.57 38.2438V34.9303C102.57 34.5231 102.726 34.2012 103.036 33.9681C103.349 33.7349 103.776 33.6167 104.326 33.6167H107.748V34.4771H104.737C104.069 34.4771 103.733 34.6938 103.733 35.124V36.1289H107.523V36.9729H107.52Z"
          fill="white"/>
    <path d="M113.83 34.4439H111.845V39.4847H110.681V34.4439H108.71V33.5835H113.83V34.4439Z" fill="white"/>
    <path d="M120.338 39.4843H119.181V36.9721H115.69V39.4843H114.53V33.6028H115.69V36.1281H119.181V33.6028H120.338V39.4843Z"
          fill="white"/>
    <path d="M126.556 36.9729H122.766V37.9679C122.766 38.408 123.105 38.628 123.783 38.628H126.784V39.4884H123.467C122.896 39.4884 122.45 39.3899 122.13 39.1895C121.778 38.9662 121.606 38.651 121.606 38.2438V34.9303C121.606 34.5231 121.762 34.2012 122.072 33.9681C122.385 33.7349 122.812 33.6167 123.362 33.6167H126.784V34.4771H123.773C123.105 34.4771 122.769 34.6938 122.769 35.124V36.1289H126.559V36.9729H126.556Z"
          fill="white"/>
    <path d="M134 39.485H132.553L129.711 37.2256C129.613 37.1501 129.565 37.0286 129.565 36.8545C129.565 36.5261 129.802 36.3619 130.282 36.3619L131.98 36.3488C132.543 36.3488 132.827 36.1518 132.827 35.761V35.0845C132.827 34.674 132.507 34.4671 131.869 34.4671H129.47V39.485H128.31V33.61H132.211C133.397 33.61 133.99 34.027 133.99 34.8645V35.8825C133.99 36.247 133.837 36.5426 133.531 36.7659C133.224 36.9892 132.82 37.1008 132.315 37.1008H130.979L134 39.485Z"
          fill="white"/>
</svg>
